<?xml version="1.0" standalone="no"?><svg xmlns:xlink="http://www.w3.org/1999/xlink" xmlns="http://www.w3.org/2000/svg" viewBox="0 0 2000 1111.1204781696017" preserveAspectRatio="xMaxYMax slice"><g transform="scale(1.6860705283302)"><rect x="0" y="0" width="1186.2" height="659" fill="#ffffff"/><circle cx="32.95" cy="32.95" r="6.59" fill="#fda949"/><g transform="translate(92.26,26.36) scale(0.659) rotate(0)"><path fill-rule="evenodd" clip-rule="evenodd" d="M10 20C15.5228 20 20 15.5228 20 10C20 4.47715 15.5228 0 10 0C4.47715 0 0 4.47715 0 10C0 15.5228 4.47715 20 10 20ZM10 17C13.866 17 17 13.866 17 10C17 6.13401 13.866 3 10 3C6.13401 3 3 6.13401 3 10C3 13.866 6.13401 17 10 17Z" fill="#77dde4"/></g><rect x="158.16000000000003" y="26.360000000000003" width="13.18" height="13.18" fill="#ffffff"/><g transform="translate(164.75,26.36) scale(0.3295) rotate(0)"><path fill-rule="evenodd" clip-rule="evenodd" d="M10 20C15.5228 20 20 15.5228 20 10C20 4.47715 15.5228 0 10 0C4.47715 0 0 4.47715 0 10C0 15.5228 4.47715 20 10 20ZM10 17C13.866 17 17 13.866 17 10C17 6.13401 13.866 3 10 3C6.13401 3 3 6.13401 3 10C3 13.866 6.13401 17 10 17Z" fill="#d8f5f7"/></g><g transform="translate(158.16,32.95) scale(0.3295) rotate(0)"><path fill-rule="evenodd" clip-rule="evenodd" d="M10 20C15.5228 20 20 15.5228 20 10C20 4.47715 15.5228 0 10 0C4.47715 0 0 4.47715 0 10C0 15.5228 4.47715 20 10 20ZM10 17C13.866 17 17 13.866 17 10C17 6.13401 13.866 3 10 3C6.13401 3 3 6.13401 3 10C3 13.866 6.13401 17 10 17Z" fill="#11c4d0"/></g><circle cx="168.045" cy="36.245000000000005" r="3.295" fill="#9de7ec"/><rect x="224.06000000000003" y="26.360000000000003" width="13.18" height="13.18" fill="#ffffff"/><g transform="translate(230.65,26.36) scale(0.3295) rotate(0)"><path fill-rule="evenodd" clip-rule="evenodd" d="M10 20C15.5228 20 20 15.5228 20 10C20 4.47715 15.5228 0 10 0C4.47715 0 0 4.47715 0 10C0 15.5228 4.47715 20 10 20ZM10 17C13.866 17 17 13.866 17 10C17 6.13401 13.866 3 10 3C6.13401 3 3 6.13401 3 10C3 13.866 6.13401 17 10 17Z" fill="#e9f9fb"/></g><circle cx="227.355" cy="36.245000000000005" r="3.295" fill="#e0f7f9"/><circle cx="233.945" cy="36.245000000000005" r="3.295" fill="#ffeedb"/><rect x="289.96000000000004" y="26.360000000000003" width="13.18" height="13.18" fill="#ffffff"/><circle cx="293.255" cy="29.655" r="3.295" fill="#c4f0f3"/><circle cx="299.845" cy="29.655" r="3.295" fill="#febf77"/><rect x="355.86" y="26.360000000000003" width="13.18" height="13.18" fill="#ffffff"/><circle cx="359.15500000000003" cy="29.655" r="3.295" fill="#feba6e"/><circle cx="359.15500000000003" cy="36.245000000000005" r="3.295" fill="#b3ecf0"/><rect x="487.6600000000001" y="26.360000000000003" width="13.18" height="13.18" fill="#ffffff"/><g transform="translate(487.66,26.36) scale(0.3295) rotate(0)"><path fill-rule="evenodd" clip-rule="evenodd" d="M10 20C15.5228 20 20 15.5228 20 10C20 4.47715 15.5228 0 10 0C4.47715 0 0 4.47715 0 10C0 15.5228 4.47715 20 10 20ZM10 17C13.866 17 17 13.866 17 10C17 6.13401 13.866 3 10 3C6.13401 3 3 6.13401 3 10C3 13.866 6.13401 17 10 17Z" fill="#b0ebf0"/></g><circle cx="497.545" cy="29.655" r="3.295" fill="#c4f0f3"/><rect x="553.5600000000001" y="26.360000000000003" width="13.18" height="13.18" fill="#ffffff"/><circle cx="563.4449999999999" cy="29.655" r="3.295" fill="#fee4c6"/><g transform="translate(553.56,32.95) scale(0.3295) rotate(0)"><path fill-rule="evenodd" clip-rule="evenodd" d="M10 20C15.5228 20 20 15.5228 20 10C20 4.47715 15.5228 0 10 0C4.47715 0 0 4.47715 0 10C0 15.5228 4.47715 20 10 20ZM10 17C13.866 17 17 13.866 17 10C17 6.13401 13.866 3 10 3C6.13401 3 3 6.13401 3 10C3 13.866 6.13401 17 10 17Z" fill="#feb665"/></g><rect x="685.36" y="26.360000000000003" width="13.18" height="13.18" fill="#ffffff"/><rect x="817.1600000000001" y="26.360000000000003" width="13.18" height="13.18" fill="#ffffff"/><g transform="translate(817.16,26.36) scale(0.3295) rotate(0)"><path fill-rule="evenodd" clip-rule="evenodd" d="M10 20C15.5228 20 20 15.5228 20 10C20 4.47715 15.5228 0 10 0C4.47715 0 0 4.47715 0 10C0 15.5228 4.47715 20 10 20ZM10 17C13.866 17 17 13.866 17 10C17 6.13401 13.866 3 10 3C6.13401 3 3 6.13401 3 10C3 13.866 6.13401 17 10 17Z" fill="#10c4d0"/></g><g transform="translate(823.75,26.36) scale(0.3295) rotate(0)"><path fill-rule="evenodd" clip-rule="evenodd" d="M10 20C15.5228 20 20 15.5228 20 10C20 4.47715 15.5228 0 10 0C4.47715 0 0 4.47715 0 10C0 15.5228 4.47715 20 10 20ZM10 17C13.866 17 17 13.866 17 10C17 6.13401 13.866 3 10 3C6.13401 3 3 6.13401 3 10C3 13.866 6.13401 17 10 17Z" fill="#fffffe"/></g><rect x="1146.66" y="26.360000000000003" width="13.18" height="13.18" fill="#ffffff"/><circle cx="1149.9550000000002" cy="29.655" r="3.295" fill="#bfeff2"/><circle cx="1156.545" cy="29.655" r="3.295" fill="#bceef2"/><g transform="translate(1146.66,32.95) scale(0.3295) rotate(0)"><path fill-rule="evenodd" clip-rule="evenodd" d="M10 20C15.5228 20 20 15.5228 20 10C20 4.47715 15.5228 0 10 0C4.47715 0 0 4.47715 0 10C0 15.5228 4.47715 20 10 20ZM10 17C13.866 17 17 13.866 17 10C17 6.13401 13.866 3 10 3C6.13401 3 3 6.13401 3 10C3 13.866 6.13401 17 10 17Z" fill="#24c9d4"/></g><circle cx="1156.545" cy="36.245000000000005" r="3.295" fill="#4cd3dc"/><rect x="26.360000000000003" y="92.26" width="13.18" height="13.18" fill="#ffffff"/><circle cx="29.655" cy="95.555" r="3.295" fill="#77dde4"/><circle cx="36.245000000000005" cy="95.555" r="3.295" fill="#caf2f5"/><circle cx="29.655" cy="102.145" r="3.295" fill="#fed6a8"/><g transform="translate(32.95,98.85) scale(0.3295) rotate(0)"><path fill-rule="evenodd" clip-rule="evenodd" d="M10 20C15.5228 20 20 15.5228 20 10C20 4.47715 15.5228 0 10 0C4.47715 0 0 4.47715 0 10C0 15.5228 4.47715 20 10 20ZM10 17C13.866 17 17 13.866 17 10C17 6.13401 13.866 3 10 3C6.13401 3 3 6.13401 3 10C3 13.866 6.13401 17 10 17Z" fill="#fff9f2"/></g><rect x="92.26" y="92.26" width="13.18" height="13.18" fill="#ffffff"/><circle cx="95.555" cy="95.555" r="3.295" fill="#fecf99"/><g transform="translate(98.85,92.26) scale(0.3295) rotate(0)"><path fill-rule="evenodd" clip-rule="evenodd" d="M10 20C15.5228 20 20 15.5228 20 10C20 4.47715 15.5228 0 10 0C4.47715 0 0 4.47715 0 10C0 15.5228 4.47715 20 10 20ZM10 17C13.866 17 17 13.866 17 10C17 6.13401 13.866 3 10 3C6.13401 3 3 6.13401 3 10C3 13.866 6.13401 17 10 17Z" fill="#85e1e7"/></g><circle cx="102.145" cy="102.145" r="3.295" fill="#fda33c"/><rect x="224.06000000000003" y="92.26" width="13.18" height="13.18" fill="#ffffff"/><circle cx="227.355" cy="95.555" r="3.295" fill="#fee3c4"/><circle cx="227.355" cy="102.145" r="3.295" fill="#fec98d"/><circle cx="362.45" cy="98.85000000000001" r="6.59" fill="#4cd3dc"/><rect x="421.76000000000005" y="92.26" width="13.18" height="13.18" fill="#ffffff"/><g transform="translate(421.76,92.26) scale(0.3295) rotate(0)"><path fill-rule="evenodd" clip-rule="evenodd" d="M10 20C15.5228 20 20 15.5228 20 10C20 4.47715 15.5228 0 10 0C4.47715 0 0 4.47715 0 10C0 15.5228 4.47715 20 10 20ZM10 17C13.866 17 17 13.866 17 10C17 6.13401 13.866 3 10 3C6.13401 3 3 6.13401 3 10C3 13.866 6.13401 17 10 17Z" fill="#fee5c7"/></g><g transform="translate(428.35,92.26) scale(0.3295) rotate(0)"><path fill-rule="evenodd" clip-rule="evenodd" d="M10 20C15.5228 20 20 15.5228 20 10C20 4.47715 15.5228 0 10 0C4.47715 0 0 4.47715 0 10C0 15.5228 4.47715 20 10 20ZM10 17C13.866 17 17 13.866 17 10C17 6.13401 13.866 3 10 3C6.13401 3 3 6.13401 3 10C3 13.866 6.13401 17 10 17Z" fill="#c6f1f4"/></g><g transform="translate(421.76,98.85) scale(0.3295) rotate(0)"><path fill-rule="evenodd" clip-rule="evenodd" d="M10 20C15.5228 20 20 15.5228 20 10C20 4.47715 15.5228 0 10 0C4.47715 0 0 4.47715 0 10C0 15.5228 4.47715 20 10 20ZM10 17C13.866 17 17 13.866 17 10C17 6.13401 13.866 3 10 3C6.13401 3 3 6.13401 3 10C3 13.866 6.13401 17 10 17Z" fill="#4dd3dc"/></g><g transform="translate(428.35,98.85) scale(0.3295) rotate(0)"><path fill-rule="evenodd" clip-rule="evenodd" d="M10 20C15.5228 20 20 15.5228 20 10C20 4.47715 15.5228 0 10 0C4.47715 0 0 4.47715 0 10C0 15.5228 4.47715 20 10 20ZM10 17C13.866 17 17 13.866 17 10C17 6.13401 13.866 3 10 3C6.13401 3 3 6.13401 3 10C3 13.866 6.13401 17 10 17Z" fill="#8de3e9"/></g><rect x="487.6600000000001" y="92.26" width="13.18" height="13.18" fill="#ffffff"/><circle cx="490.95500000000004" cy="95.555" r="3.295" fill="#84e0e7"/><g transform="translate(487.66,98.85) scale(0.3295) rotate(0)"><path fill-rule="evenodd" clip-rule="evenodd" d="M10 20C15.5228 20 20 15.5228 20 10C20 4.47715 15.5228 0 10 0C4.47715 0 0 4.47715 0 10C0 15.5228 4.47715 20 10 20ZM10 17C13.866 17 17 13.866 17 10C17 6.13401 13.866 3 10 3C6.13401 3 3 6.13401 3 10C3 13.866 6.13401 17 10 17Z" fill="#c2f0f3"/></g><circle cx="497.545" cy="102.145" r="3.295" fill="#a6e9ee"/><rect x="685.36" y="92.26" width="13.18" height="13.18" fill="#ffffff"/><circle cx="688.655" cy="95.555" r="3.295" fill="#fec98c"/><circle cx="695.245" cy="95.555" r="3.295" fill="#3bced9"/><rect x="817.1600000000001" y="92.26" width="13.18" height="13.18" fill="#ffffff"/><circle cx="820.4549999999999" cy="95.555" r="3.295" fill="#63d8e1"/><g transform="translate(823.75,98.85) scale(0.3295) rotate(0)"><path fill-rule="evenodd" clip-rule="evenodd" d="M10 20C15.5228 20 20 15.5228 20 10C20 4.47715 15.5228 0 10 0C4.47715 0 0 4.47715 0 10C0 15.5228 4.47715 20 10 20ZM10 17C13.866 17 17 13.866 17 10C17 6.13401 13.866 3 10 3C6.13401 3 3 6.13401 3 10C3 13.866 6.13401 17 10 17Z" fill="#fcfefe"/></g><g transform="translate(883.06,92.26) scale(0.659) rotate(0)"><path fill-rule="evenodd" clip-rule="evenodd" d="M10 20C15.5228 20 20 15.5228 20 10C20 4.47715 15.5228 0 10 0C4.47715 0 0 4.47715 0 10C0 15.5228 4.47715 20 10 20ZM10 17C13.866 17 17 13.866 17 10C17 6.13401 13.866 3 10 3C6.13401 3 3 6.13401 3 10C3 13.866 6.13401 17 10 17Z" fill="#f0fbfc"/></g><rect x="948.9600000000002" y="92.26" width="13.18" height="13.18" fill="#ffffff"/><circle cx="958.8449999999999" cy="95.555" r="3.295" fill="#cef3f5"/><g transform="translate(955.55,98.85) scale(0.3295) rotate(0)"><path fill-rule="evenodd" clip-rule="evenodd" d="M10 20C15.5228 20 20 15.5228 20 10C20 4.47715 15.5228 0 10 0C4.47715 0 0 4.47715 0 10C0 15.5228 4.47715 20 10 20ZM10 17C13.866 17 17 13.866 17 10C17 6.13401 13.866 3 10 3C6.13401 3 3 6.13401 3 10C3 13.866 6.13401 17 10 17Z" fill="#fffffe"/></g><circle cx="1021.45" cy="98.85000000000001" r="6.59" fill="#1fc8d3"/><rect x="1080.76" y="92.26" width="13.18" height="13.18" fill="#ffffff"/><circle cx="1084.055" cy="95.555" r="3.295" fill="#fffefc"/><circle cx="1090.645" cy="95.555" r="3.295" fill="#9fe7ec"/><g transform="translate(1080.76,98.85) scale(0.3295) rotate(0)"><path fill-rule="evenodd" clip-rule="evenodd" d="M10 20C15.5228 20 20 15.5228 20 10C20 4.47715 15.5228 0 10 0C4.47715 0 0 4.47715 0 10C0 15.5228 4.47715 20 10 20ZM10 17C13.866 17 17 13.866 17 10C17 6.13401 13.866 3 10 3C6.13401 3 3 6.13401 3 10C3 13.866 6.13401 17 10 17Z" fill="#86e1e7"/></g><rect x="1146.66" y="92.26" width="13.18" height="13.18" fill="#ffffff"/><g transform="translate(1146.66,92.26) scale(0.3295) rotate(0)"><path fill-rule="evenodd" clip-rule="evenodd" d="M10 20C15.5228 20 20 15.5228 20 10C20 4.47715 15.5228 0 10 0C4.47715 0 0 4.47715 0 10C0 15.5228 4.47715 20 10 20ZM10 17C13.866 17 17 13.866 17 10C17 6.13401 13.866 3 10 3C6.13401 3 3 6.13401 3 10C3 13.866 6.13401 17 10 17Z" fill="#9be6ec"/></g><circle cx="1156.545" cy="95.555" r="3.295" fill="#fec27f"/><g transform="translate(1146.66,98.85) scale(0.3295) rotate(0)"><path fill-rule="evenodd" clip-rule="evenodd" d="M10 20C15.5228 20 20 15.5228 20 10C20 4.47715 15.5228 0 10 0C4.47715 0 0 4.47715 0 10C0 15.5228 4.47715 20 10 20ZM10 17C13.866 17 17 13.866 17 10C17 6.13401 13.866 3 10 3C6.13401 3 3 6.13401 3 10C3 13.866 6.13401 17 10 17Z" fill="#fdaf55"/></g><circle cx="32.95" cy="164.75" r="6.59" fill="#a4e9ed"/><rect x="92.26" y="158.16000000000003" width="13.18" height="13.18" fill="#ffffff"/><g transform="translate(92.26,158.16) scale(0.3295) rotate(0)"><path fill-rule="evenodd" clip-rule="evenodd" d="M10 20C15.5228 20 20 15.5228 20 10C20 4.47715 15.5228 0 10 0C4.47715 0 0 4.47715 0 10C0 15.5228 4.47715 20 10 20ZM10 17C13.866 17 17 13.866 17 10C17 6.13401 13.866 3 10 3C6.13401 3 3 6.13401 3 10C3 13.866 6.13401 17 10 17Z" fill="#5ad6df"/></g><circle cx="164.75" cy="164.75" r="6.59" fill="#63d8e0"/><rect x="224.06000000000003" y="158.16000000000003" width="13.18" height="13.18" fill="#ffffff"/><g transform="translate(230.65,158.16) scale(0.3295) rotate(0)"><path fill-rule="evenodd" clip-rule="evenodd" d="M10 20C15.5228 20 20 15.5228 20 10C20 4.47715 15.5228 0 10 0C4.47715 0 0 4.47715 0 10C0 15.5228 4.47715 20 10 20ZM10 17C13.866 17 17 13.866 17 10C17 6.13401 13.866 3 10 3C6.13401 3 3 6.13401 3 10C3 13.866 6.13401 17 10 17Z" fill="#d3f4f6"/></g><g transform="translate(224.06,164.75) scale(0.3295) rotate(0)"><path fill-rule="evenodd" clip-rule="evenodd" d="M10 20C15.5228 20 20 15.5228 20 10C20 4.47715 15.5228 0 10 0C4.47715 0 0 4.47715 0 10C0 15.5228 4.47715 20 10 20ZM10 17C13.866 17 17 13.866 17 10C17 6.13401 13.866 3 10 3C6.13401 3 3 6.13401 3 10C3 13.866 6.13401 17 10 17Z" fill="#fff6ed"/></g><circle cx="233.945" cy="168.045" r="3.295" fill="#adebef"/><rect x="289.96000000000004" y="158.16000000000003" width="13.18" height="13.18" fill="#ffffff"/><g transform="translate(296.55,158.16) scale(0.3295) rotate(0)"><path fill-rule="evenodd" clip-rule="evenodd" d="M10 20C15.5228 20 20 15.5228 20 10C20 4.47715 15.5228 0 10 0C4.47715 0 0 4.47715 0 10C0 15.5228 4.47715 20 10 20ZM10 17C13.866 17 17 13.866 17 10C17 6.13401 13.866 3 10 3C6.13401 3 3 6.13401 3 10C3 13.866 6.13401 17 10 17Z" fill="#fecf99"/></g><circle cx="293.255" cy="168.045" r="3.295" fill="#ffedd8"/><rect x="553.5600000000001" y="158.16000000000003" width="13.18" height="13.18" fill="#ffffff"/><circle cx="556.8549999999999" cy="161.45499999999998" r="3.295" fill="#ecfafb"/><g transform="translate(560.15,158.16) scale(0.3295) rotate(0)"><path fill-rule="evenodd" clip-rule="evenodd" d="M10 20C15.5228 20 20 15.5228 20 10C20 4.47715 15.5228 0 10 0C4.47715 0 0 4.47715 0 10C0 15.5228 4.47715 20 10 20ZM10 17C13.866 17 17 13.866 17 10C17 6.13401 13.866 3 10 3C6.13401 3 3 6.13401 3 10C3 13.866 6.13401 17 10 17Z" fill="#21c8d4"/></g><circle cx="556.8549999999999" cy="168.045" r="3.295" fill="#f9fdfe"/><g transform="translate(560.15,164.75) scale(0.3295) rotate(0)"><path fill-rule="evenodd" clip-rule="evenodd" d="M10 20C15.5228 20 20 15.5228 20 10C20 4.47715 15.5228 0 10 0C4.47715 0 0 4.47715 0 10C0 15.5228 4.47715 20 10 20ZM10 17C13.866 17 17 13.866 17 10C17 6.13401 13.866 3 10 3C6.13401 3 3 6.13401 3 10C3 13.866 6.13401 17 10 17Z" fill="#e2f8f9"/></g><g transform="translate(685.36,158.16) scale(0.659) rotate(0)"><path fill-rule="evenodd" clip-rule="evenodd" d="M10 20C15.5228 20 20 15.5228 20 10C20 4.47715 15.5228 0 10 0C4.47715 0 0 4.47715 0 10C0 15.5228 4.47715 20 10 20ZM10 17C13.866 17 17 13.866 17 10C17 6.13401 13.866 3 10 3C6.13401 3 3 6.13401 3 10C3 13.866 6.13401 17 10 17Z" fill="#fda948"/></g><rect x="751.2600000000001" y="158.16000000000003" width="13.18" height="13.18" fill="#ffffff"/><g transform="translate(751.26,158.16) scale(0.3295) rotate(0)"><path fill-rule="evenodd" clip-rule="evenodd" d="M10 20C15.5228 20 20 15.5228 20 10C20 4.47715 15.5228 0 10 0C4.47715 0 0 4.47715 0 10C0 15.5228 4.47715 20 10 20ZM10 17C13.866 17 17 13.866 17 10C17 6.13401 13.866 3 10 3C6.13401 3 3 6.13401 3 10C3 13.866 6.13401 17 10 17Z" fill="#ddf7f8"/></g><circle cx="761.145" cy="161.45499999999998" r="3.295" fill="#feca90"/><circle cx="754.555" cy="168.045" r="3.295" fill="#a7e9ee"/><circle cx="761.145" cy="168.045" r="3.295" fill="#64d9e1"/><g transform="translate(817.16,158.16) scale(0.659) rotate(0)"><path fill-rule="evenodd" clip-rule="evenodd" d="M10 20C15.5228 20 20 15.5228 20 10C20 4.47715 15.5228 0 10 0C4.47715 0 0 4.47715 0 10C0 15.5228 4.47715 20 10 20ZM10 17C13.866 17 17 13.866 17 10C17 6.13401 13.866 3 10 3C6.13401 3 3 6.13401 3 10C3 13.866 6.13401 17 10 17Z" fill="#dbf6f8"/></g><rect x="1014.8600000000001" y="158.16000000000003" width="13.18" height="13.18" fill="#ffffff"/><circle cx="1018.155" cy="161.45499999999998" r="3.295" fill="#fda139"/><g transform="translate(1021.45,158.16) scale(0.3295) rotate(0)"><path fill-rule="evenodd" clip-rule="evenodd" d="M10 20C15.5228 20 20 15.5228 20 10C20 4.47715 15.5228 0 10 0C4.47715 0 0 4.47715 0 10C0 15.5228 4.47715 20 10 20ZM10 17C13.866 17 17 13.866 17 10C17 6.13401 13.866 3 10 3C6.13401 3 3 6.13401 3 10C3 13.866 6.13401 17 10 17Z" fill="#fed4a4"/></g><circle cx="1024.7450000000001" cy="168.045" r="3.295" fill="#fdb461"/><circle cx="98.85000000000001" cy="230.65" r="6.59" fill="#90e4e9"/><rect x="224.06000000000003" y="224.06000000000003" width="13.18" height="13.18" fill="#ffffff"/><circle cx="233.945" cy="227.355" r="3.295" fill="#fff5ea"/><g transform="translate(224.06,230.65) scale(0.3295) rotate(0)"><path fill-rule="evenodd" clip-rule="evenodd" d="M10 20C15.5228 20 20 15.5228 20 10C20 4.47715 15.5228 0 10 0C4.47715 0 0 4.47715 0 10C0 15.5228 4.47715 20 10 20ZM10 17C13.866 17 17 13.866 17 10C17 6.13401 13.866 3 10 3C6.13401 3 3 6.13401 3 10C3 13.866 6.13401 17 10 17Z" fill="#2dcbd6"/></g><rect x="289.96000000000004" y="224.06000000000003" width="13.18" height="13.18" fill="#ffffff"/><circle cx="299.845" cy="227.355" r="3.295" fill="#35cdd8"/><g transform="translate(289.96,230.65) scale(0.3295) rotate(0)"><path fill-rule="evenodd" clip-rule="evenodd" d="M10 20C15.5228 20 20 15.5228 20 10C20 4.47715 15.5228 0 10 0C4.47715 0 0 4.47715 0 10C0 15.5228 4.47715 20 10 20ZM10 17C13.866 17 17 13.866 17 10C17 6.13401 13.866 3 10 3C6.13401 3 3 6.13401 3 10C3 13.866 6.13401 17 10 17Z" fill="#5ed7e0"/></g><circle cx="494.25" cy="230.65" r="6.59" fill="#85e1e7"/><rect x="553.5600000000001" y="224.06000000000003" width="13.18" height="13.18" fill="#ffffff"/><g transform="translate(560.15,224.06) scale(0.3295) rotate(0)"><path fill-rule="evenodd" clip-rule="evenodd" d="M10 20C15.5228 20 20 15.5228 20 10C20 4.47715 15.5228 0 10 0C4.47715 0 0 4.47715 0 10C0 15.5228 4.47715 20 10 20ZM10 17C13.866 17 17 13.866 17 10C17 6.13401 13.866 3 10 3C6.13401 3 3 6.13401 3 10C3 13.866 6.13401 17 10 17Z" fill="#ffecd6"/></g><g transform="translate(553.56,230.65) scale(0.3295) rotate(0)"><path fill-rule="evenodd" clip-rule="evenodd" d="M10 20C15.5228 20 20 15.5228 20 10C20 4.47715 15.5228 0 10 0C4.47715 0 0 4.47715 0 10C0 15.5228 4.47715 20 10 20ZM10 17C13.866 17 17 13.866 17 10C17 6.13401 13.866 3 10 3C6.13401 3 3 6.13401 3 10C3 13.866 6.13401 17 10 17Z" fill="#fee5c9"/></g><circle cx="563.4449999999999" cy="233.945" r="3.295" fill="#94e5ea"/><rect x="619.46" y="224.06000000000003" width="13.18" height="13.18" fill="#ffffff"/><g transform="translate(619.46,224.06) scale(0.3295) rotate(0)"><path fill-rule="evenodd" clip-rule="evenodd" d="M10 20C15.5228 20 20 15.5228 20 10C20 4.47715 15.5228 0 10 0C4.47715 0 0 4.47715 0 10C0 15.5228 4.47715 20 10 20ZM10 17C13.866 17 17 13.866 17 10C17 6.13401 13.866 3 10 3C6.13401 3 3 6.13401 3 10C3 13.866 6.13401 17 10 17Z" fill="#91e4e9"/></g><circle cx="629.3449999999999" cy="227.355" r="3.295" fill="#feb664"/><rect x="751.2600000000001" y="224.06000000000003" width="13.18" height="13.18" fill="#ffffff"/><circle cx="754.555" cy="227.355" r="3.295" fill="#48d2db"/><circle cx="761.145" cy="227.355" r="3.295" fill="#93e4ea"/><circle cx="761.145" cy="233.945" r="3.295" fill="#8fe3e9"/><g transform="translate(817.16,224.06) scale(0.659) rotate(0)"><path fill-rule="evenodd" clip-rule="evenodd" d="M10 20C15.5228 20 20 15.5228 20 10C20 4.47715 15.5228 0 10 0C4.47715 0 0 4.47715 0 10C0 15.5228 4.47715 20 10 20ZM10 17C13.866 17 17 13.866 17 10C17 6.13401 13.866 3 10 3C6.13401 3 3 6.13401 3 10C3 13.866 6.13401 17 10 17Z" fill="#ffe9d0"/></g><rect x="883.0600000000001" y="224.06000000000003" width="13.18" height="13.18" fill="#ffffff"/><g transform="translate(883.06,230.65) scale(0.3295) rotate(0)"><path fill-rule="evenodd" clip-rule="evenodd" d="M10 20C15.5228 20 20 15.5228 20 10C20 4.47715 15.5228 0 10 0C4.47715 0 0 4.47715 0 10C0 15.5228 4.47715 20 10 20ZM10 17C13.866 17 17 13.866 17 10C17 6.13401 13.866 3 10 3C6.13401 3 3 6.13401 3 10C3 13.866 6.13401 17 10 17Z" fill="#febc71"/></g><g transform="translate(889.65,230.65) scale(0.3295) rotate(0)"><path fill-rule="evenodd" clip-rule="evenodd" d="M10 20C15.5228 20 20 15.5228 20 10C20 4.47715 15.5228 0 10 0C4.47715 0 0 4.47715 0 10C0 15.5228 4.47715 20 10 20ZM10 17C13.866 17 17 13.866 17 10C17 6.13401 13.866 3 10 3C6.13401 3 3 6.13401 3 10C3 13.866 6.13401 17 10 17Z" fill="#aaeaee"/></g><rect x="1014.8600000000001" y="224.06000000000003" width="13.18" height="13.18" fill="#ffffff"/><circle cx="1018.155" cy="227.355" r="3.295" fill="#15c5d1"/><g transform="translate(1021.45,224.06) scale(0.3295) rotate(0)"><path fill-rule="evenodd" clip-rule="evenodd" d="M10 20C15.5228 20 20 15.5228 20 10C20 4.47715 15.5228 0 10 0C4.47715 0 0 4.47715 0 10C0 15.5228 4.47715 20 10 20ZM10 17C13.866 17 17 13.866 17 10C17 6.13401 13.866 3 10 3C6.13401 3 3 6.13401 3 10C3 13.866 6.13401 17 10 17Z" fill="#fecc93"/></g><rect x="1080.76" y="224.06000000000003" width="13.18" height="13.18" fill="#ffffff"/><g transform="translate(1087.35,224.06) scale(0.3295) rotate(0)"><path fill-rule="evenodd" clip-rule="evenodd" d="M10 20C15.5228 20 20 15.5228 20 10C20 4.47715 15.5228 0 10 0C4.47715 0 0 4.47715 0 10C0 15.5228 4.47715 20 10 20ZM10 17C13.866 17 17 13.866 17 10C17 6.13401 13.866 3 10 3C6.13401 3 3 6.13401 3 10C3 13.866 6.13401 17 10 17Z" fill="#fee5c9"/></g><circle cx="1084.055" cy="233.945" r="3.295" fill="#fffefd"/><circle cx="1090.645" cy="233.945" r="3.295" fill="#febf78"/><rect x="1146.66" y="224.06000000000003" width="13.18" height="13.18" fill="#ffffff"/><circle cx="1149.9550000000002" cy="227.355" r="3.295" fill="#fece97"/><g transform="translate(1153.25,224.06) scale(0.3295) rotate(0)"><path fill-rule="evenodd" clip-rule="evenodd" d="M10 20C15.5228 20 20 15.5228 20 10C20 4.47715 15.5228 0 10 0C4.47715 0 0 4.47715 0 10C0 15.5228 4.47715 20 10 20ZM10 17C13.866 17 17 13.866 17 10C17 6.13401 13.866 3 10 3C6.13401 3 3 6.13401 3 10C3 13.866 6.13401 17 10 17Z" fill="#febd74"/></g><g transform="translate(1153.25,230.65) scale(0.3295) rotate(0)"><path fill-rule="evenodd" clip-rule="evenodd" d="M10 20C15.5228 20 20 15.5228 20 10C20 4.47715 15.5228 0 10 0C4.47715 0 0 4.47715 0 10C0 15.5228 4.47715 20 10 20ZM10 17C13.866 17 17 13.866 17 10C17 6.13401 13.866 3 10 3C6.13401 3 3 6.13401 3 10C3 13.866 6.13401 17 10 17Z" fill="#cff3f6"/></g><rect x="158.16000000000003" y="289.96000000000004" width="13.18" height="13.18" fill="#ffffff"/><g transform="translate(158.16,289.96) scale(0.3295) rotate(0)"><path fill-rule="evenodd" clip-rule="evenodd" d="M10 20C15.5228 20 20 15.5228 20 10C20 4.47715 15.5228 0 10 0C4.47715 0 0 4.47715 0 10C0 15.5228 4.47715 20 10 20ZM10 17C13.866 17 17 13.866 17 10C17 6.13401 13.866 3 10 3C6.13401 3 3 6.13401 3 10C3 13.866 6.13401 17 10 17Z" fill="#27c9d5"/></g><g transform="translate(164.75,289.96) scale(0.3295) rotate(0)"><path fill-rule="evenodd" clip-rule="evenodd" d="M10 20C15.5228 20 20 15.5228 20 10C20 4.47715 15.5228 0 10 0C4.47715 0 0 4.47715 0 10C0 15.5228 4.47715 20 10 20ZM10 17C13.866 17 17 13.866 17 10C17 6.13401 13.866 3 10 3C6.13401 3 3 6.13401 3 10C3 13.866 6.13401 17 10 17Z" fill="#f7fdfe"/></g><circle cx="161.45499999999998" cy="299.845" r="3.295" fill="#ffebd5"/><rect x="224.06000000000003" y="289.96000000000004" width="13.18" height="13.18" fill="#ffffff"/><circle cx="227.355" cy="293.255" r="3.295" fill="#feddb7"/><rect x="289.96000000000004" y="289.96000000000004" width="13.18" height="13.18" fill="#ffffff"/><g transform="translate(296.55,289.96) scale(0.3295) rotate(0)"><path fill-rule="evenodd" clip-rule="evenodd" d="M10 20C15.5228 20 20 15.5228 20 10C20 4.47715 15.5228 0 10 0C4.47715 0 0 4.47715 0 10C0 15.5228 4.47715 20 10 20ZM10 17C13.866 17 17 13.866 17 10C17 6.13401 13.866 3 10 3C6.13401 3 3 6.13401 3 10C3 13.866 6.13401 17 10 17Z" fill="#fffbf6"/></g><circle cx="293.255" cy="299.845" r="3.295" fill="#21c8d4"/><rect x="355.86" y="289.96000000000004" width="13.18" height="13.18" fill="#ffffff"/><circle cx="359.15500000000003" cy="293.255" r="3.295" fill="#15c5d1"/><circle cx="365.745" cy="299.845" r="3.295" fill="#49d2db"/><rect x="553.5600000000001" y="289.96000000000004" width="13.18" height="13.18" fill="#ffffff"/><circle cx="556.8549999999999" cy="293.255" r="3.295" fill="#fee1c0"/><g transform="translate(560.15,289.96) scale(0.3295) rotate(0)"><path fill-rule="evenodd" clip-rule="evenodd" d="M10 20C15.5228 20 20 15.5228 20 10C20 4.47715 15.5228 0 10 0C4.47715 0 0 4.47715 0 10C0 15.5228 4.47715 20 10 20ZM10 17C13.866 17 17 13.866 17 10C17 6.13401 13.866 3 10 3C6.13401 3 3 6.13401 3 10C3 13.866 6.13401 17 10 17Z" fill="#7bdee5"/></g><circle cx="556.8549999999999" cy="299.845" r="3.295" fill="#e4f8fa"/><circle cx="563.4449999999999" cy="299.845" r="3.295" fill="#30ccd7"/><rect x="619.46" y="289.96000000000004" width="13.18" height="13.18" fill="#ffffff"/><g transform="translate(619.46,289.96) scale(0.3295) rotate(0)"><path fill-rule="evenodd" clip-rule="evenodd" d="M10 20C15.5228 20 20 15.5228 20 10C20 4.47715 15.5228 0 10 0C4.47715 0 0 4.47715 0 10C0 15.5228 4.47715 20 10 20ZM10 17C13.866 17 17 13.866 17 10C17 6.13401 13.866 3 10 3C6.13401 3 3 6.13401 3 10C3 13.866 6.13401 17 10 17Z" fill="#fafefe"/></g><g transform="translate(626.05,289.96) scale(0.3295) rotate(0)"><path fill-rule="evenodd" clip-rule="evenodd" d="M10 20C15.5228 20 20 15.5228 20 10C20 4.47715 15.5228 0 10 0C4.47715 0 0 4.47715 0 10C0 15.5228 4.47715 20 10 20ZM10 17C13.866 17 17 13.866 17 10C17 6.13401 13.866 3 10 3C6.13401 3 3 6.13401 3 10C3 13.866 6.13401 17 10 17Z" fill="#fed19d"/></g><g transform="translate(619.46,296.55) scale(0.3295) rotate(0)"><path fill-rule="evenodd" clip-rule="evenodd" d="M10 20C15.5228 20 20 15.5228 20 10C20 4.47715 15.5228 0 10 0C4.47715 0 0 4.47715 0 10C0 15.5228 4.47715 20 10 20ZM10 17C13.866 17 17 13.866 17 10C17 6.13401 13.866 3 10 3C6.13401 3 3 6.13401 3 10C3 13.866 6.13401 17 10 17Z" fill="#2ccbd6"/></g><circle cx="629.3449999999999" cy="299.845" r="3.295" fill="#72dce3"/><rect x="751.2600000000001" y="289.96000000000004" width="13.18" height="13.18" fill="#ffffff"/><g transform="translate(751.26,289.96) scale(0.3295) rotate(0)"><path fill-rule="evenodd" clip-rule="evenodd" d="M10 20C15.5228 20 20 15.5228 20 10C20 4.47715 15.5228 0 10 0C4.47715 0 0 4.47715 0 10C0 15.5228 4.47715 20 10 20ZM10 17C13.866 17 17 13.866 17 10C17 6.13401 13.866 3 10 3C6.13401 3 3 6.13401 3 10C3 13.866 6.13401 17 10 17Z" fill="#ffe9d0"/></g><circle cx="761.145" cy="293.255" r="3.295" fill="#ffedd9"/><g transform="translate(757.85,296.55) scale(0.3295) rotate(0)"><path fill-rule="evenodd" clip-rule="evenodd" d="M10 20C15.5228 20 20 15.5228 20 10C20 4.47715 15.5228 0 10 0C4.47715 0 0 4.47715 0 10C0 15.5228 4.47715 20 10 20ZM10 17C13.866 17 17 13.866 17 10C17 6.13401 13.866 3 10 3C6.13401 3 3 6.13401 3 10C3 13.866 6.13401 17 10 17Z" fill="#e4f8fa"/></g><circle cx="823.75" cy="296.54999999999995" r="6.59" fill="#fed3a1"/><rect x="883.0600000000001" y="289.96000000000004" width="13.18" height="13.18" fill="#ffffff"/><g transform="translate(883.06,289.96) scale(0.3295) rotate(0)"><path fill-rule="evenodd" clip-rule="evenodd" d="M10 20C15.5228 20 20 15.5228 20 10C20 4.47715 15.5228 0 10 0C4.47715 0 0 4.47715 0 10C0 15.5228 4.47715 20 10 20ZM10 17C13.866 17 17 13.866 17 10C17 6.13401 13.866 3 10 3C6.13401 3 3 6.13401 3 10C3 13.866 6.13401 17 10 17Z" fill="#fec88a"/></g><circle cx="886.3549999999999" cy="299.845" r="3.295" fill="#ffecd7"/><rect x="948.9600000000002" y="289.96000000000004" width="13.18" height="13.18" fill="#ffffff"/><g transform="translate(955.55,289.96) scale(0.3295) rotate(0)"><path fill-rule="evenodd" clip-rule="evenodd" d="M10 20C15.5228 20 20 15.5228 20 10C20 4.47715 15.5228 0 10 0C4.47715 0 0 4.47715 0 10C0 15.5228 4.47715 20 10 20ZM10 17C13.866 17 17 13.866 17 10C17 6.13401 13.866 3 10 3C6.13401 3 3 6.13401 3 10C3 13.866 6.13401 17 10 17Z" fill="#fcfefe"/></g><g transform="translate(948.96,296.55) scale(0.3295) rotate(0)"><path fill-rule="evenodd" clip-rule="evenodd" d="M10 20C15.5228 20 20 15.5228 20 10C20 4.47715 15.5228 0 10 0C4.47715 0 0 4.47715 0 10C0 15.5228 4.47715 20 10 20ZM10 17C13.866 17 17 13.866 17 10C17 6.13401 13.866 3 10 3C6.13401 3 3 6.13401 3 10C3 13.866 6.13401 17 10 17Z" fill="#14c5d1"/></g><circle cx="958.8449999999999" cy="299.845" r="3.295" fill="#fff1e1"/><rect x="1014.8600000000001" y="289.96000000000004" width="13.18" height="13.18" fill="#ffffff"/><circle cx="1018.155" cy="293.255" r="3.295" fill="#4dd3dc"/><g transform="translate(1021.45,289.96) scale(0.3295) rotate(0)"><path fill-rule="evenodd" clip-rule="evenodd" d="M10 20C15.5228 20 20 15.5228 20 10C20 4.47715 15.5228 0 10 0C4.47715 0 0 4.47715 0 10C0 15.5228 4.47715 20 10 20ZM10 17C13.866 17 17 13.866 17 10C17 6.13401 13.866 3 10 3C6.13401 3 3 6.13401 3 10C3 13.866 6.13401 17 10 17Z" fill="#fec788"/></g><g transform="translate(1014.86,296.55) scale(0.3295) rotate(0)"><path fill-rule="evenodd" clip-rule="evenodd" d="M10 20C15.5228 20 20 15.5228 20 10C20 4.47715 15.5228 0 10 0C4.47715 0 0 4.47715 0 10C0 15.5228 4.47715 20 10 20ZM10 17C13.866 17 17 13.866 17 10C17 6.13401 13.866 3 10 3C6.13401 3 3 6.13401 3 10C3 13.866 6.13401 17 10 17Z" fill="#d0f3f6"/></g><g transform="translate(1021.45,296.55) scale(0.3295) rotate(0)"><path fill-rule="evenodd" clip-rule="evenodd" d="M10 20C15.5228 20 20 15.5228 20 10C20 4.47715 15.5228 0 10 0C4.47715 0 0 4.47715 0 10C0 15.5228 4.47715 20 10 20ZM10 17C13.866 17 17 13.866 17 10C17 6.13401 13.866 3 10 3C6.13401 3 3 6.13401 3 10C3 13.866 6.13401 17 10 17Z" fill="#fedab1"/></g><g transform="translate(1080.76,289.96) scale(0.659) rotate(0)"><path fill-rule="evenodd" clip-rule="evenodd" d="M10 20C15.5228 20 20 15.5228 20 10C20 4.47715 15.5228 0 10 0C4.47715 0 0 4.47715 0 10C0 15.5228 4.47715 20 10 20ZM10 17C13.866 17 17 13.866 17 10C17 6.13401 13.866 3 10 3C6.13401 3 3 6.13401 3 10C3 13.866 6.13401 17 10 17Z" fill="#8ce2e9"/></g><g transform="translate(1146.66,289.96) scale(0.659) rotate(0)"><path fill-rule="evenodd" clip-rule="evenodd" d="M10 20C15.5228 20 20 15.5228 20 10C20 4.47715 15.5228 0 10 0C4.47715 0 0 4.47715 0 10C0 15.5228 4.47715 20 10 20ZM10 17C13.866 17 17 13.866 17 10C17 6.13401 13.866 3 10 3C6.13401 3 3 6.13401 3 10C3 13.866 6.13401 17 10 17Z" fill="#feb868"/></g><rect x="92.26" y="355.86" width="13.18" height="13.18" fill="#ffffff"/><circle cx="95.555" cy="359.15500000000003" r="3.295" fill="#a2e8ed"/><g transform="translate(98.85,355.86) scale(0.3295) rotate(0)"><path fill-rule="evenodd" clip-rule="evenodd" d="M10 20C15.5228 20 20 15.5228 20 10C20 4.47715 15.5228 0 10 0C4.47715 0 0 4.47715 0 10C0 15.5228 4.47715 20 10 20ZM10 17C13.866 17 17 13.866 17 10C17 6.13401 13.866 3 10 3C6.13401 3 3 6.13401 3 10C3 13.866 6.13401 17 10 17Z" fill="#1dc7d3"/></g><circle cx="95.555" cy="365.745" r="3.295" fill="#72dce4"/><circle cx="102.145" cy="365.745" r="3.295" fill="#fda33c"/><g transform="translate(224.06,355.86) scale(0.659) rotate(0)"><path fill-rule="evenodd" clip-rule="evenodd" d="M10 20C15.5228 20 20 15.5228 20 10C20 4.47715 15.5228 0 10 0C4.47715 0 0 4.47715 0 10C0 15.5228 4.47715 20 10 20ZM10 17C13.866 17 17 13.866 17 10C17 6.13401 13.866 3 10 3C6.13401 3 3 6.13401 3 10C3 13.866 6.13401 17 10 17Z" fill="#21c8d4"/></g><rect x="355.86" y="355.86" width="13.18" height="13.18" fill="#ffffff"/><circle cx="365.745" cy="359.15500000000003" r="3.295" fill="#fffaf5"/><circle cx="365.745" cy="365.745" r="3.295" fill="#fee4c6"/><rect x="487.6600000000001" y="355.86" width="13.18" height="13.18" fill="#ffffff"/><g transform="translate(487.66,362.45) scale(0.3295) rotate(0)"><path fill-rule="evenodd" clip-rule="evenodd" d="M10 20C15.5228 20 20 15.5228 20 10C20 4.47715 15.5228 0 10 0C4.47715 0 0 4.47715 0 10C0 15.5228 4.47715 20 10 20ZM10 17C13.866 17 17 13.866 17 10C17 6.13401 13.866 3 10 3C6.13401 3 3 6.13401 3 10C3 13.866 6.13401 17 10 17Z" fill="#e1f8f9"/></g><circle cx="497.545" cy="365.745" r="3.295" fill="#adebef"/><rect x="553.5600000000001" y="355.86" width="13.18" height="13.18" fill="#ffffff"/><circle cx="556.8549999999999" cy="359.15500000000003" r="3.295" fill="#feb869"/><g transform="translate(560.15,362.45) scale(0.3295) rotate(0)"><path fill-rule="evenodd" clip-rule="evenodd" d="M10 20C15.5228 20 20 15.5228 20 10C20 4.47715 15.5228 0 10 0C4.47715 0 0 4.47715 0 10C0 15.5228 4.47715 20 10 20ZM10 17C13.866 17 17 13.866 17 10C17 6.13401 13.866 3 10 3C6.13401 3 3 6.13401 3 10C3 13.866 6.13401 17 10 17Z" fill="#c4f0f3"/></g><circle cx="626.0500000000001" cy="362.45" r="6.59" fill="#fdb461"/><rect x="685.36" y="355.86" width="13.18" height="13.18" fill="#ffffff"/><circle cx="688.655" cy="359.15500000000003" r="3.295" fill="#fdae53"/><circle cx="695.245" cy="359.15500000000003" r="3.295" fill="#fed09c"/><circle cx="688.655" cy="365.745" r="3.295" fill="#def7f9"/><circle cx="695.245" cy="365.745" r="3.295" fill="#c1f0f3"/><rect x="751.2600000000001" y="355.86" width="13.18" height="13.18" fill="#ffffff"/><g transform="translate(751.26,355.86) scale(0.3295) rotate(0)"><path fill-rule="evenodd" clip-rule="evenodd" d="M10 20C15.5228 20 20 15.5228 20 10C20 4.47715 15.5228 0 10 0C4.47715 0 0 4.47715 0 10C0 15.5228 4.47715 20 10 20ZM10 17C13.866 17 17 13.866 17 10C17 6.13401 13.866 3 10 3C6.13401 3 3 6.13401 3 10C3 13.866 6.13401 17 10 17Z" fill="#fda746"/></g><circle cx="761.145" cy="359.15500000000003" r="3.295" fill="#4ed3dd"/><circle cx="754.555" cy="365.745" r="3.295" fill="#feb766"/><g transform="translate(757.85,362.45) scale(0.3295) rotate(0)"><path fill-rule="evenodd" clip-rule="evenodd" d="M10 20C15.5228 20 20 15.5228 20 10C20 4.47715 15.5228 0 10 0C4.47715 0 0 4.47715 0 10C0 15.5228 4.47715 20 10 20ZM10 17C13.866 17 17 13.866 17 10C17 6.13401 13.866 3 10 3C6.13401 3 3 6.13401 3 10C3 13.866 6.13401 17 10 17Z" fill="#fdb562"/></g><rect x="817.1600000000001" y="355.86" width="13.18" height="13.18" fill="#ffffff"/><g transform="translate(817.16,355.86) scale(0.3295) rotate(0)"><path fill-rule="evenodd" clip-rule="evenodd" d="M10 20C15.5228 20 20 15.5228 20 10C20 4.47715 15.5228 0 10 0C4.47715 0 0 4.47715 0 10C0 15.5228 4.47715 20 10 20ZM10 17C13.866 17 17 13.866 17 10C17 6.13401 13.866 3 10 3C6.13401 3 3 6.13401 3 10C3 13.866 6.13401 17 10 17Z" fill="#febf77"/></g><g transform="translate(817.16,362.45) scale(0.3295) rotate(0)"><path fill-rule="evenodd" clip-rule="evenodd" d="M10 20C15.5228 20 20 15.5228 20 10C20 4.47715 15.5228 0 10 0C4.47715 0 0 4.47715 0 10C0 15.5228 4.47715 20 10 20ZM10 17C13.866 17 17 13.866 17 10C17 6.13401 13.866 3 10 3C6.13401 3 3 6.13401 3 10C3 13.866 6.13401 17 10 17Z" fill="#aaeaee"/></g><circle cx="827.045" cy="365.745" r="3.295" fill="#fdaa4b"/><rect x="883.0600000000001" y="355.86" width="13.18" height="13.18" fill="#ffffff"/><g transform="translate(889.65,362.45) scale(0.3295) rotate(0)"><path fill-rule="evenodd" clip-rule="evenodd" d="M10 20C15.5228 20 20 15.5228 20 10C20 4.47715 15.5228 0 10 0C4.47715 0 0 4.47715 0 10C0 15.5228 4.47715 20 10 20ZM10 17C13.866 17 17 13.866 17 10C17 6.13401 13.866 3 10 3C6.13401 3 3 6.13401 3 10C3 13.866 6.13401 17 10 17Z" fill="#92e4ea"/></g><rect x="948.9600000000002" y="355.86" width="13.18" height="13.18" fill="#ffffff"/><circle cx="952.255" cy="359.15500000000003" r="3.295" fill="#fecb91"/><circle cx="958.8449999999999" cy="359.15500000000003" r="3.295" fill="#fdb25d"/><rect x="1014.8600000000001" y="355.86" width="13.18" height="13.18" fill="#ffffff"/><circle cx="1018.155" cy="359.15500000000003" r="3.295" fill="#feca90"/><g transform="translate(1021.45,355.86) scale(0.3295) rotate(0)"><path fill-rule="evenodd" clip-rule="evenodd" d="M10 20C15.5228 20 20 15.5228 20 10C20 4.47715 15.5228 0 10 0C4.47715 0 0 4.47715 0 10C0 15.5228 4.47715 20 10 20ZM10 17C13.866 17 17 13.866 17 10C17 6.13401 13.866 3 10 3C6.13401 3 3 6.13401 3 10C3 13.866 6.13401 17 10 17Z" fill="#ffecd7"/></g><g transform="translate(1014.86,362.45) scale(0.3295) rotate(0)"><path fill-rule="evenodd" clip-rule="evenodd" d="M10 20C15.5228 20 20 15.5228 20 10C20 4.47715 15.5228 0 10 0C4.47715 0 0 4.47715 0 10C0 15.5228 4.47715 20 10 20ZM10 17C13.866 17 17 13.866 17 10C17 6.13401 13.866 3 10 3C6.13401 3 3 6.13401 3 10C3 13.866 6.13401 17 10 17Z" fill="#89e2e8"/></g><g transform="translate(1021.45,362.45) scale(0.3295) rotate(0)"><path fill-rule="evenodd" clip-rule="evenodd" d="M10 20C15.5228 20 20 15.5228 20 10C20 4.47715 15.5228 0 10 0C4.47715 0 0 4.47715 0 10C0 15.5228 4.47715 20 10 20ZM10 17C13.866 17 17 13.866 17 10C17 6.13401 13.866 3 10 3C6.13401 3 3 6.13401 3 10C3 13.866 6.13401 17 10 17Z" fill="#21c8d4"/></g><rect x="1080.76" y="355.86" width="13.18" height="13.18" fill="#ffffff"/><g transform="translate(1080.76,355.86) scale(0.3295) rotate(0)"><path fill-rule="evenodd" clip-rule="evenodd" d="M10 20C15.5228 20 20 15.5228 20 10C20 4.47715 15.5228 0 10 0C4.47715 0 0 4.47715 0 10C0 15.5228 4.47715 20 10 20ZM10 17C13.866 17 17 13.866 17 10C17 6.13401 13.866 3 10 3C6.13401 3 3 6.13401 3 10C3 13.866 6.13401 17 10 17Z" fill="#fffffe"/></g><g transform="translate(1087.35,355.86) scale(0.3295) rotate(0)"><path fill-rule="evenodd" clip-rule="evenodd" d="M10 20C15.5228 20 20 15.5228 20 10C20 4.47715 15.5228 0 10 0C4.47715 0 0 4.47715 0 10C0 15.5228 4.47715 20 10 20ZM10 17C13.866 17 17 13.866 17 10C17 6.13401 13.866 3 10 3C6.13401 3 3 6.13401 3 10C3 13.866 6.13401 17 10 17Z" fill="#fdaa4c"/></g><g transform="translate(1080.76,362.45) scale(0.3295) rotate(0)"><path fill-rule="evenodd" clip-rule="evenodd" d="M10 20C15.5228 20 20 15.5228 20 10C20 4.47715 15.5228 0 10 0C4.47715 0 0 4.47715 0 10C0 15.5228 4.47715 20 10 20ZM10 17C13.866 17 17 13.866 17 10C17 6.13401 13.866 3 10 3C6.13401 3 3 6.13401 3 10C3 13.866 6.13401 17 10 17Z" fill="#a3e8ed"/></g><circle cx="1090.645" cy="365.745" r="3.295" fill="#fdb35e"/><circle cx="98.85000000000001" cy="428.34999999999997" r="6.59" fill="#fee6c9"/><rect x="224.06000000000003" y="421.76000000000005" width="13.18" height="13.18" fill="#ffffff"/><circle cx="227.355" cy="425.055" r="3.295" fill="#8be2e8"/><g transform="translate(230.65,421.76) scale(0.3295) rotate(0)"><path fill-rule="evenodd" clip-rule="evenodd" d="M10 20C15.5228 20 20 15.5228 20 10C20 4.47715 15.5228 0 10 0C4.47715 0 0 4.47715 0 10C0 15.5228 4.47715 20 10 20ZM10 17C13.866 17 17 13.866 17 10C17 6.13401 13.866 3 10 3C6.13401 3 3 6.13401 3 10C3 13.866 6.13401 17 10 17Z" fill="#fdb35f"/></g><g transform="translate(224.06,428.35) scale(0.3295) rotate(0)"><path fill-rule="evenodd" clip-rule="evenodd" d="M10 20C15.5228 20 20 15.5228 20 10C20 4.47715 15.5228 0 10 0C4.47715 0 0 4.47715 0 10C0 15.5228 4.47715 20 10 20ZM10 17C13.866 17 17 13.866 17 10C17 6.13401 13.866 3 10 3C6.13401 3 3 6.13401 3 10C3 13.866 6.13401 17 10 17Z" fill="#3ecfd9"/></g><g transform="translate(230.65,428.35) scale(0.3295) rotate(0)"><path fill-rule="evenodd" clip-rule="evenodd" d="M10 20C15.5228 20 20 15.5228 20 10C20 4.47715 15.5228 0 10 0C4.47715 0 0 4.47715 0 10C0 15.5228 4.47715 20 10 20ZM10 17C13.866 17 17 13.866 17 10C17 6.13401 13.866 3 10 3C6.13401 3 3 6.13401 3 10C3 13.866 6.13401 17 10 17Z" fill="#23c8d4"/></g><g transform="translate(289.96,421.76) scale(0.659) rotate(0)"><path fill-rule="evenodd" clip-rule="evenodd" d="M10 20C15.5228 20 20 15.5228 20 10C20 4.47715 15.5228 0 10 0C4.47715 0 0 4.47715 0 10C0 15.5228 4.47715 20 10 20ZM10 17C13.866 17 17 13.866 17 10C17 6.13401 13.866 3 10 3C6.13401 3 3 6.13401 3 10C3 13.866 6.13401 17 10 17Z" fill="#ffead3"/></g><rect x="355.86" y="421.76000000000005" width="13.18" height="13.18" fill="#ffffff"/><g transform="translate(355.86,421.76) scale(0.3295) rotate(0)"><path fill-rule="evenodd" clip-rule="evenodd" d="M10 20C15.5228 20 20 15.5228 20 10C20 4.47715 15.5228 0 10 0C4.47715 0 0 4.47715 0 10C0 15.5228 4.47715 20 10 20ZM10 17C13.866 17 17 13.866 17 10C17 6.13401 13.866 3 10 3C6.13401 3 3 6.13401 3 10C3 13.866 6.13401 17 10 17Z" fill="#50d4dd"/></g><g transform="translate(355.86,428.35) scale(0.3295) rotate(0)"><path fill-rule="evenodd" clip-rule="evenodd" d="M10 20C15.5228 20 20 15.5228 20 10C20 4.47715 15.5228 0 10 0C4.47715 0 0 4.47715 0 10C0 15.5228 4.47715 20 10 20ZM10 17C13.866 17 17 13.866 17 10C17 6.13401 13.866 3 10 3C6.13401 3 3 6.13401 3 10C3 13.866 6.13401 17 10 17Z" fill="#39ced8"/></g><circle cx="428.34999999999997" cy="428.34999999999997" r="6.59" fill="#58d6de"/><rect x="487.6600000000001" y="421.76000000000005" width="13.18" height="13.18" fill="#ffffff"/><g transform="translate(487.66,421.76) scale(0.3295) rotate(0)"><path fill-rule="evenodd" clip-rule="evenodd" d="M10 20C15.5228 20 20 15.5228 20 10C20 4.47715 15.5228 0 10 0C4.47715 0 0 4.47715 0 10C0 15.5228 4.47715 20 10 20ZM10 17C13.866 17 17 13.866 17 10C17 6.13401 13.866 3 10 3C6.13401 3 3 6.13401 3 10C3 13.866 6.13401 17 10 17Z" fill="#4bd2dc"/></g><circle cx="497.545" cy="425.055" r="3.295" fill="#65d9e1"/><circle cx="490.95500000000004" cy="431.64500000000004" r="3.295" fill="#fecf9a"/><circle cx="497.545" cy="431.64500000000004" r="3.295" fill="#6bdae2"/><g transform="translate(553.56,421.76) scale(0.659) rotate(0)"><path fill-rule="evenodd" clip-rule="evenodd" d="M10 20C15.5228 20 20 15.5228 20 10C20 4.47715 15.5228 0 10 0C4.47715 0 0 4.47715 0 10C0 15.5228 4.47715 20 10 20ZM10 17C13.866 17 17 13.866 17 10C17 6.13401 13.866 3 10 3C6.13401 3 3 6.13401 3 10C3 13.866 6.13401 17 10 17Z" fill="#0ec3d0"/></g><rect x="685.36" y="421.76000000000005" width="13.18" height="13.18" fill="#ffffff"/><circle cx="695.245" cy="431.64500000000004" r="3.295" fill="#fecc94"/><rect x="817.1600000000001" y="421.76000000000005" width="13.18" height="13.18" fill="#ffffff"/><circle cx="820.4549999999999" cy="425.055" r="3.295" fill="#2fcbd6"/><g transform="translate(817.16,428.35) scale(0.3295) rotate(0)"><path fill-rule="evenodd" clip-rule="evenodd" d="M10 20C15.5228 20 20 15.5228 20 10C20 4.47715 15.5228 0 10 0C4.47715 0 0 4.47715 0 10C0 15.5228 4.47715 20 10 20ZM10 17C13.866 17 17 13.866 17 10C17 6.13401 13.866 3 10 3C6.13401 3 3 6.13401 3 10C3 13.866 6.13401 17 10 17Z" fill="#fedfbb"/></g><g transform="translate(823.75,428.35) scale(0.3295) rotate(0)"><path fill-rule="evenodd" clip-rule="evenodd" d="M10 20C15.5228 20 20 15.5228 20 10C20 4.47715 15.5228 0 10 0C4.47715 0 0 4.47715 0 10C0 15.5228 4.47715 20 10 20ZM10 17C13.866 17 17 13.866 17 10C17 6.13401 13.866 3 10 3C6.13401 3 3 6.13401 3 10C3 13.866 6.13401 17 10 17Z" fill="#3ccfd9"/></g><rect x="883.0600000000001" y="421.76000000000005" width="13.18" height="13.18" fill="#ffffff"/><g transform="translate(883.06,428.35) scale(0.3295) rotate(0)"><path fill-rule="evenodd" clip-rule="evenodd" d="M10 20C15.5228 20 20 15.5228 20 10C20 4.47715 15.5228 0 10 0C4.47715 0 0 4.47715 0 10C0 15.5228 4.47715 20 10 20ZM10 17C13.866 17 17 13.866 17 10C17 6.13401 13.866 3 10 3C6.13401 3 3 6.13401 3 10C3 13.866 6.13401 17 10 17Z" fill="#d2f4f6"/></g><circle cx="892.9449999999999" cy="431.64500000000004" r="3.295" fill="#edfafb"/><circle cx="1021.45" cy="428.34999999999997" r="6.59" fill="#feb86a"/><rect x="1080.76" y="421.76000000000005" width="13.18" height="13.18" fill="#ffffff"/><g transform="translate(1080.76,421.76) scale(0.3295) rotate(0)"><path fill-rule="evenodd" clip-rule="evenodd" d="M10 20C15.5228 20 20 15.5228 20 10C20 4.47715 15.5228 0 10 0C4.47715 0 0 4.47715 0 10C0 15.5228 4.47715 20 10 20ZM10 17C13.866 17 17 13.866 17 10C17 6.13401 13.866 3 10 3C6.13401 3 3 6.13401 3 10C3 13.866 6.13401 17 10 17Z" fill="#fff1e2"/></g><g transform="translate(1087.35,421.76) scale(0.3295) rotate(0)"><path fill-rule="evenodd" clip-rule="evenodd" d="M10 20C15.5228 20 20 15.5228 20 10C20 4.47715 15.5228 0 10 0C4.47715 0 0 4.47715 0 10C0 15.5228 4.47715 20 10 20ZM10 17C13.866 17 17 13.866 17 10C17 6.13401 13.866 3 10 3C6.13401 3 3 6.13401 3 10C3 13.866 6.13401 17 10 17Z" fill="#feb666"/></g><g transform="translate(1080.76,428.35) scale(0.3295) rotate(0)"><path fill-rule="evenodd" clip-rule="evenodd" d="M10 20C15.5228 20 20 15.5228 20 10C20 4.47715 15.5228 0 10 0C4.47715 0 0 4.47715 0 10C0 15.5228 4.47715 20 10 20ZM10 17C13.866 17 17 13.866 17 10C17 6.13401 13.866 3 10 3C6.13401 3 3 6.13401 3 10C3 13.866 6.13401 17 10 17Z" fill="#fd9f34"/></g><rect x="1146.66" y="421.76000000000005" width="13.18" height="13.18" fill="#ffffff"/><circle cx="1156.545" cy="431.64500000000004" r="3.295" fill="#e4f8fa"/><rect x="26.360000000000003" y="487.6600000000001" width="13.18" height="13.18" fill="#ffffff"/><g transform="translate(32.95,487.66) scale(0.3295) rotate(0)"><path fill-rule="evenodd" clip-rule="evenodd" d="M10 20C15.5228 20 20 15.5228 20 10C20 4.47715 15.5228 0 10 0C4.47715 0 0 4.47715 0 10C0 15.5228 4.47715 20 10 20ZM10 17C13.866 17 17 13.866 17 10C17 6.13401 13.866 3 10 3C6.13401 3 3 6.13401 3 10C3 13.866 6.13401 17 10 17Z" fill="#96e5ea"/></g><g transform="translate(32.95,494.25) scale(0.3295) rotate(0)"><path fill-rule="evenodd" clip-rule="evenodd" d="M10 20C15.5228 20 20 15.5228 20 10C20 4.47715 15.5228 0 10 0C4.47715 0 0 4.47715 0 10C0 15.5228 4.47715 20 10 20ZM10 17C13.866 17 17 13.866 17 10C17 6.13401 13.866 3 10 3C6.13401 3 3 6.13401 3 10C3 13.866 6.13401 17 10 17Z" fill="#81e0e6"/></g><rect x="92.26" y="487.6600000000001" width="13.18" height="13.18" fill="#ffffff"/><g transform="translate(92.26,487.66) scale(0.3295) rotate(0)"><path fill-rule="evenodd" clip-rule="evenodd" d="M10 20C15.5228 20 20 15.5228 20 10C20 4.47715 15.5228 0 10 0C4.47715 0 0 4.47715 0 10C0 15.5228 4.47715 20 10 20ZM10 17C13.866 17 17 13.866 17 10C17 6.13401 13.866 3 10 3C6.13401 3 3 6.13401 3 10C3 13.866 6.13401 17 10 17Z" fill="#73dce4"/></g><circle cx="95.555" cy="497.545" r="3.295" fill="#f9fefe"/><circle cx="102.145" cy="497.545" r="3.295" fill="#0bc3cf"/><rect x="224.06000000000003" y="487.6600000000001" width="13.18" height="13.18" fill="#ffffff"/><circle cx="227.355" cy="490.95500000000004" r="3.295" fill="#fff8f1"/><circle cx="233.945" cy="490.95500000000004" r="3.295" fill="#fecf9a"/><circle cx="233.945" cy="497.545" r="3.295" fill="#ffe8cd"/><rect x="289.96000000000004" y="487.6600000000001" width="13.18" height="13.18" fill="#ffffff"/><circle cx="299.845" cy="497.545" r="3.295" fill="#8ce2e8"/><rect x="355.86" y="487.6600000000001" width="13.18" height="13.18" fill="#ffffff"/><g transform="translate(362.45,487.66) scale(0.3295) rotate(0)"><path fill-rule="evenodd" clip-rule="evenodd" d="M10 20C15.5228 20 20 15.5228 20 10C20 4.47715 15.5228 0 10 0C4.47715 0 0 4.47715 0 10C0 15.5228 4.47715 20 10 20ZM10 17C13.866 17 17 13.866 17 10C17 6.13401 13.866 3 10 3C6.13401 3 3 6.13401 3 10C3 13.866 6.13401 17 10 17Z" fill="#2ecbd6"/></g><g transform="translate(362.45,494.25) scale(0.3295) rotate(0)"><path fill-rule="evenodd" clip-rule="evenodd" d="M10 20C15.5228 20 20 15.5228 20 10C20 4.47715 15.5228 0 10 0C4.47715 0 0 4.47715 0 10C0 15.5228 4.47715 20 10 20ZM10 17C13.866 17 17 13.866 17 10C17 6.13401 13.866 3 10 3C6.13401 3 3 6.13401 3 10C3 13.866 6.13401 17 10 17Z" fill="#baeef2"/></g><rect x="421.76000000000005" y="487.6600000000001" width="13.18" height="13.18" fill="#ffffff"/><circle cx="425.055" cy="490.95500000000004" r="3.295" fill="#1fc7d3"/><g transform="translate(428.35,487.66) scale(0.3295) rotate(0)"><path fill-rule="evenodd" clip-rule="evenodd" d="M10 20C15.5228 20 20 15.5228 20 10C20 4.47715 15.5228 0 10 0C4.47715 0 0 4.47715 0 10C0 15.5228 4.47715 20 10 20ZM10 17C13.866 17 17 13.866 17 10C17 6.13401 13.866 3 10 3C6.13401 3 3 6.13401 3 10C3 13.866 6.13401 17 10 17Z" fill="#fee2c2"/></g><circle cx="431.64500000000004" cy="497.545" r="3.295" fill="#f3fcfd"/><rect x="487.6600000000001" y="487.6600000000001" width="13.18" height="13.18" fill="#ffffff"/><g transform="translate(487.66,487.66) scale(0.3295) rotate(0)"><path fill-rule="evenodd" clip-rule="evenodd" d="M10 20C15.5228 20 20 15.5228 20 10C20 4.47715 15.5228 0 10 0C4.47715 0 0 4.47715 0 10C0 15.5228 4.47715 20 10 20ZM10 17C13.866 17 17 13.866 17 10C17 6.13401 13.866 3 10 3C6.13401 3 3 6.13401 3 10C3 13.866 6.13401 17 10 17Z" fill="#3bced9"/></g><circle cx="490.95500000000004" cy="497.545" r="3.295" fill="#37cdd8"/><g transform="translate(494.25,494.25) scale(0.3295) rotate(0)"><path fill-rule="evenodd" clip-rule="evenodd" d="M10 20C15.5228 20 20 15.5228 20 10C20 4.47715 15.5228 0 10 0C4.47715 0 0 4.47715 0 10C0 15.5228 4.47715 20 10 20ZM10 17C13.866 17 17 13.866 17 10C17 6.13401 13.866 3 10 3C6.13401 3 3 6.13401 3 10C3 13.866 6.13401 17 10 17Z" fill="#fff8f1"/></g><rect x="553.5600000000001" y="487.6600000000001" width="13.18" height="13.18" fill="#ffffff"/><circle cx="556.8549999999999" cy="490.95500000000004" r="3.295" fill="#7fdfe6"/><g transform="translate(560.15,487.66) scale(0.3295) rotate(0)"><path fill-rule="evenodd" clip-rule="evenodd" d="M10 20C15.5228 20 20 15.5228 20 10C20 4.47715 15.5228 0 10 0C4.47715 0 0 4.47715 0 10C0 15.5228 4.47715 20 10 20ZM10 17C13.866 17 17 13.866 17 10C17 6.13401 13.866 3 10 3C6.13401 3 3 6.13401 3 10C3 13.866 6.13401 17 10 17Z" fill="#fec789"/></g><circle cx="563.4449999999999" cy="497.545" r="3.295" fill="#fed09d"/><rect x="685.36" y="487.6600000000001" width="13.18" height="13.18" fill="#ffffff"/><circle cx="695.245" cy="490.95500000000004" r="3.295" fill="#53d4dd"/><circle cx="688.655" cy="497.545" r="3.295" fill="#b6edf1"/><circle cx="757.85" cy="494.25" r="6.59" fill="#fee2c1"/><rect x="817.1600000000001" y="487.6600000000001" width="13.18" height="13.18" fill="#ffffff"/><g transform="translate(817.16,487.66) scale(0.3295) rotate(0)"><path fill-rule="evenodd" clip-rule="evenodd" d="M10 20C15.5228 20 20 15.5228 20 10C20 4.47715 15.5228 0 10 0C4.47715 0 0 4.47715 0 10C0 15.5228 4.47715 20 10 20ZM10 17C13.866 17 17 13.866 17 10C17 6.13401 13.866 3 10 3C6.13401 3 3 6.13401 3 10C3 13.866 6.13401 17 10 17Z" fill="#b5edf1"/></g><g transform="translate(817.16,494.25) scale(0.3295) rotate(0)"><path fill-rule="evenodd" clip-rule="evenodd" d="M10 20C15.5228 20 20 15.5228 20 10C20 4.47715 15.5228 0 10 0C4.47715 0 0 4.47715 0 10C0 15.5228 4.47715 20 10 20ZM10 17C13.866 17 17 13.866 17 10C17 6.13401 13.866 3 10 3C6.13401 3 3 6.13401 3 10C3 13.866 6.13401 17 10 17Z" fill="#11c4d1"/></g><circle cx="827.045" cy="497.545" r="3.295" fill="#fec98c"/><rect x="883.0600000000001" y="487.6600000000001" width="13.18" height="13.18" fill="#ffffff"/><g transform="translate(883.06,487.66) scale(0.3295) rotate(0)"><path fill-rule="evenodd" clip-rule="evenodd" d="M10 20C15.5228 20 20 15.5228 20 10C20 4.47715 15.5228 0 10 0C4.47715 0 0 4.47715 0 10C0 15.5228 4.47715 20 10 20ZM10 17C13.866 17 17 13.866 17 10C17 6.13401 13.866 3 10 3C6.13401 3 3 6.13401 3 10C3 13.866 6.13401 17 10 17Z" fill="#daf6f8"/></g><g transform="translate(889.65,487.66) scale(0.3295) rotate(0)"><path fill-rule="evenodd" clip-rule="evenodd" d="M10 20C15.5228 20 20 15.5228 20 10C20 4.47715 15.5228 0 10 0C4.47715 0 0 4.47715 0 10C0 15.5228 4.47715 20 10 20ZM10 17C13.866 17 17 13.866 17 10C17 6.13401 13.866 3 10 3C6.13401 3 3 6.13401 3 10C3 13.866 6.13401 17 10 17Z" fill="#fff6ec"/></g><circle cx="892.9449999999999" cy="497.545" r="3.295" fill="#29cad5"/><rect x="1014.8600000000001" y="487.6600000000001" width="13.18" height="13.18" fill="#ffffff"/><circle cx="1018.155" cy="490.95500000000004" r="3.295" fill="#fdad51"/><circle cx="1018.155" cy="497.545" r="3.295" fill="#f8fdfe"/><circle cx="1024.7450000000001" cy="497.545" r="3.295" fill="#fda847"/><g transform="translate(1146.66,487.66) scale(0.659) rotate(0)"><path fill-rule="evenodd" clip-rule="evenodd" d="M10 20C15.5228 20 20 15.5228 20 10C20 4.47715 15.5228 0 10 0C4.47715 0 0 4.47715 0 10C0 15.5228 4.47715 20 10 20ZM10 17C13.866 17 17 13.866 17 10C17 6.13401 13.866 3 10 3C6.13401 3 3 6.13401 3 10C3 13.866 6.13401 17 10 17Z" fill="#1cc7d3"/></g><rect x="26.360000000000003" y="553.5600000000001" width="13.18" height="13.18" fill="#ffffff"/><circle cx="29.655" cy="556.8549999999999" r="3.295" fill="#46d1db"/><g transform="translate(32.95,553.56) scale(0.3295) rotate(0)"><path fill-rule="evenodd" clip-rule="evenodd" d="M10 20C15.5228 20 20 15.5228 20 10C20 4.47715 15.5228 0 10 0C4.47715 0 0 4.47715 0 10C0 15.5228 4.47715 20 10 20ZM10 17C13.866 17 17 13.866 17 10C17 6.13401 13.866 3 10 3C6.13401 3 3 6.13401 3 10C3 13.866 6.13401 17 10 17Z" fill="#c8f1f4"/></g><circle cx="36.245000000000005" cy="563.4449999999999" r="3.295" fill="#0cc3cf"/><circle cx="98.85000000000001" cy="560.15" r="6.59" fill="#ffe8ce"/><circle cx="164.75" cy="560.15" r="6.59" fill="#eefbfc"/><rect x="224.06000000000003" y="553.5600000000001" width="13.18" height="13.18" fill="#ffffff"/><g transform="translate(224.06,560.15) scale(0.3295) rotate(0)"><path fill-rule="evenodd" clip-rule="evenodd" d="M10 20C15.5228 20 20 15.5228 20 10C20 4.47715 15.5228 0 10 0C4.47715 0 0 4.47715 0 10C0 15.5228 4.47715 20 10 20ZM10 17C13.866 17 17 13.866 17 10C17 6.13401 13.866 3 10 3C6.13401 3 3 6.13401 3 10C3 13.866 6.13401 17 10 17Z" fill="#8ee3e9"/></g><circle cx="233.945" cy="563.4449999999999" r="3.295" fill="#29cad5"/><rect x="289.96000000000004" y="553.5600000000001" width="13.18" height="13.18" fill="#ffffff"/><circle cx="299.845" cy="563.4449999999999" r="3.295" fill="#86e1e7"/><circle cx="362.45" cy="560.15" r="6.59" fill="#fec686"/><rect x="421.76000000000005" y="553.5600000000001" width="13.18" height="13.18" fill="#ffffff"/><circle cx="425.055" cy="556.8549999999999" r="3.295" fill="#fdad53"/><circle cx="425.055" cy="563.4449999999999" r="3.295" fill="#9ee7ec"/><rect x="553.5600000000001" y="553.5600000000001" width="13.18" height="13.18" fill="#ffffff"/><g transform="translate(553.56,553.56) scale(0.3295) rotate(0)"><path fill-rule="evenodd" clip-rule="evenodd" d="M10 20C15.5228 20 20 15.5228 20 10C20 4.47715 15.5228 0 10 0C4.47715 0 0 4.47715 0 10C0 15.5228 4.47715 20 10 20ZM10 17C13.866 17 17 13.866 17 10C17 6.13401 13.866 3 10 3C6.13401 3 3 6.13401 3 10C3 13.866 6.13401 17 10 17Z" fill="#fdae53"/></g><circle cx="563.4449999999999" cy="556.8549999999999" r="3.295" fill="#a5e9ed"/><g transform="translate(553.56,560.15) scale(0.3295) rotate(0)"><path fill-rule="evenodd" clip-rule="evenodd" d="M10 20C15.5228 20 20 15.5228 20 10C20 4.47715 15.5228 0 10 0C4.47715 0 0 4.47715 0 10C0 15.5228 4.47715 20 10 20ZM10 17C13.866 17 17 13.866 17 10C17 6.13401 13.866 3 10 3C6.13401 3 3 6.13401 3 10C3 13.866 6.13401 17 10 17Z" fill="#fedfbc"/></g><circle cx="563.4449999999999" cy="563.4449999999999" r="3.295" fill="#fec686"/><rect x="619.46" y="553.5600000000001" width="13.18" height="13.18" fill="#ffffff"/><circle cx="622.755" cy="556.8549999999999" r="3.295" fill="#f6fdfd"/><g transform="translate(626.05,560.15) scale(0.3295) rotate(0)"><path fill-rule="evenodd" clip-rule="evenodd" d="M10 20C15.5228 20 20 15.5228 20 10C20 4.47715 15.5228 0 10 0C4.47715 0 0 4.47715 0 10C0 15.5228 4.47715 20 10 20ZM10 17C13.866 17 17 13.866 17 10C17 6.13401 13.866 3 10 3C6.13401 3 3 6.13401 3 10C3 13.866 6.13401 17 10 17Z" fill="#fedcb4"/></g><circle cx="691.95" cy="560.15" r="6.59" fill="#fff5ea"/><rect x="751.2600000000001" y="553.5600000000001" width="13.18" height="13.18" fill="#ffffff"/><circle cx="761.145" cy="556.8549999999999" r="3.295" fill="#fd9e31"/><g transform="translate(751.26,560.15) scale(0.3295) rotate(0)"><path fill-rule="evenodd" clip-rule="evenodd" d="M10 20C15.5228 20 20 15.5228 20 10C20 4.47715 15.5228 0 10 0C4.47715 0 0 4.47715 0 10C0 15.5228 4.47715 20 10 20ZM10 17C13.866 17 17 13.866 17 10C17 6.13401 13.866 3 10 3C6.13401 3 3 6.13401 3 10C3 13.866 6.13401 17 10 17Z" fill="#d9f6f8"/></g><g transform="translate(757.85,560.15) scale(0.3295) rotate(0)"><path fill-rule="evenodd" clip-rule="evenodd" d="M10 20C15.5228 20 20 15.5228 20 10C20 4.47715 15.5228 0 10 0C4.47715 0 0 4.47715 0 10C0 15.5228 4.47715 20 10 20ZM10 17C13.866 17 17 13.866 17 10C17 6.13401 13.866 3 10 3C6.13401 3 3 6.13401 3 10C3 13.866 6.13401 17 10 17Z" fill="#fed7aa"/></g><circle cx="823.75" cy="560.15" r="6.59" fill="#fed8ac"/><g transform="translate(883.06,553.56) scale(0.659) rotate(0)"><path fill-rule="evenodd" clip-rule="evenodd" d="M10 20C15.5228 20 20 15.5228 20 10C20 4.47715 15.5228 0 10 0C4.47715 0 0 4.47715 0 10C0 15.5228 4.47715 20 10 20ZM10 17C13.866 17 17 13.866 17 10C17 6.13401 13.866 3 10 3C6.13401 3 3 6.13401 3 10C3 13.866 6.13401 17 10 17Z" fill="#fecb91"/></g><rect x="1080.76" y="553.5600000000001" width="13.18" height="13.18" fill="#ffffff"/><circle cx="1090.645" cy="556.8549999999999" r="3.295" fill="#f0fbfc"/><g transform="translate(1080.76,560.15) scale(0.3295) rotate(0)"><path fill-rule="evenodd" clip-rule="evenodd" d="M10 20C15.5228 20 20 15.5228 20 10C20 4.47715 15.5228 0 10 0C4.47715 0 0 4.47715 0 10C0 15.5228 4.47715 20 10 20ZM10 17C13.866 17 17 13.866 17 10C17 6.13401 13.866 3 10 3C6.13401 3 3 6.13401 3 10C3 13.866 6.13401 17 10 17Z" fill="#dff7f9"/></g><g transform="translate(1087.35,560.15) scale(0.3295) rotate(0)"><path fill-rule="evenodd" clip-rule="evenodd" d="M10 20C15.5228 20 20 15.5228 20 10C20 4.47715 15.5228 0 10 0C4.47715 0 0 4.47715 0 10C0 15.5228 4.47715 20 10 20ZM10 17C13.866 17 17 13.866 17 10C17 6.13401 13.866 3 10 3C6.13401 3 3 6.13401 3 10C3 13.866 6.13401 17 10 17Z" fill="#fedbb3"/></g><circle cx="1153.25" cy="560.15" r="6.59" fill="#fff9f3"/><rect x="26.360000000000003" y="619.46" width="13.18" height="13.18" fill="#ffffff"/><circle cx="29.655" cy="622.755" r="3.295" fill="#fdb058"/><g transform="translate(32.95,619.46) scale(0.3295) rotate(0)"><path fill-rule="evenodd" clip-rule="evenodd" d="M10 20C15.5228 20 20 15.5228 20 10C20 4.47715 15.5228 0 10 0C4.47715 0 0 4.47715 0 10C0 15.5228 4.47715 20 10 20ZM10 17C13.866 17 17 13.866 17 10C17 6.13401 13.866 3 10 3C6.13401 3 3 6.13401 3 10C3 13.866 6.13401 17 10 17Z" fill="#34cdd7"/></g><g transform="translate(26.36,626.05) scale(0.3295) rotate(0)"><path fill-rule="evenodd" clip-rule="evenodd" d="M10 20C15.5228 20 20 15.5228 20 10C20 4.47715 15.5228 0 10 0C4.47715 0 0 4.47715 0 10C0 15.5228 4.47715 20 10 20ZM10 17C13.866 17 17 13.866 17 10C17 6.13401 13.866 3 10 3C6.13401 3 3 6.13401 3 10C3 13.866 6.13401 17 10 17Z" fill="#fffdfa"/></g><circle cx="36.245000000000005" cy="629.3449999999999" r="3.295" fill="#fedab1"/><rect x="158.16000000000003" y="619.46" width="13.18" height="13.18" fill="#ffffff"/><g transform="translate(158.16,619.46) scale(0.3295) rotate(0)"><path fill-rule="evenodd" clip-rule="evenodd" d="M10 20C15.5228 20 20 15.5228 20 10C20 4.47715 15.5228 0 10 0C4.47715 0 0 4.47715 0 10C0 15.5228 4.47715 20 10 20ZM10 17C13.866 17 17 13.866 17 10C17 6.13401 13.866 3 10 3C6.13401 3 3 6.13401 3 10C3 13.866 6.13401 17 10 17Z" fill="#eafafb"/></g><circle cx="168.045" cy="622.755" r="3.295" fill="#19c6d2"/><g transform="translate(158.16,626.05) scale(0.3295) rotate(0)"><path fill-rule="evenodd" clip-rule="evenodd" d="M10 20C15.5228 20 20 15.5228 20 10C20 4.47715 15.5228 0 10 0C4.47715 0 0 4.47715 0 10C0 15.5228 4.47715 20 10 20ZM10 17C13.866 17 17 13.866 17 10C17 6.13401 13.866 3 10 3C6.13401 3 3 6.13401 3 10C3 13.866 6.13401 17 10 17Z" fill="#90e3e9"/></g><circle cx="168.045" cy="629.3449999999999" r="3.295" fill="#fdaa4c"/><g transform="translate(289.96,619.46) scale(0.659) rotate(0)"><path fill-rule="evenodd" clip-rule="evenodd" d="M10 20C15.5228 20 20 15.5228 20 10C20 4.47715 15.5228 0 10 0C4.47715 0 0 4.47715 0 10C0 15.5228 4.47715 20 10 20ZM10 17C13.866 17 17 13.866 17 10C17 6.13401 13.866 3 10 3C6.13401 3 3 6.13401 3 10C3 13.866 6.13401 17 10 17Z" fill="#fec482"/></g><rect x="355.86" y="619.46" width="13.18" height="13.18" fill="#ffffff"/><circle cx="365.745" cy="622.755" r="3.295" fill="#fd9f34"/><g transform="translate(355.86,626.05) scale(0.3295) rotate(0)"><path fill-rule="evenodd" clip-rule="evenodd" d="M10 20C15.5228 20 20 15.5228 20 10C20 4.47715 15.5228 0 10 0C4.47715 0 0 4.47715 0 10C0 15.5228 4.47715 20 10 20ZM10 17C13.866 17 17 13.866 17 10C17 6.13401 13.866 3 10 3C6.13401 3 3 6.13401 3 10C3 13.866 6.13401 17 10 17Z" fill="#18c6d2"/></g><g transform="translate(487.66,619.46) scale(0.659) rotate(0)"><path fill-rule="evenodd" clip-rule="evenodd" d="M10 20C15.5228 20 20 15.5228 20 10C20 4.47715 15.5228 0 10 0C4.47715 0 0 4.47715 0 10C0 15.5228 4.47715 20 10 20ZM10 17C13.866 17 17 13.866 17 10C17 6.13401 13.866 3 10 3C6.13401 3 3 6.13401 3 10C3 13.866 6.13401 17 10 17Z" fill="#fff1e1"/></g><g transform="translate(685.36,619.46) scale(0.659) rotate(0)"><path fill-rule="evenodd" clip-rule="evenodd" d="M10 20C15.5228 20 20 15.5228 20 10C20 4.47715 15.5228 0 10 0C4.47715 0 0 4.47715 0 10C0 15.5228 4.47715 20 10 20ZM10 17C13.866 17 17 13.866 17 10C17 6.13401 13.866 3 10 3C6.13401 3 3 6.13401 3 10C3 13.866 6.13401 17 10 17Z" fill="#aceaef"/></g><rect x="751.2600000000001" y="619.46" width="13.18" height="13.18" fill="#ffffff"/><circle cx="754.555" cy="622.755" r="3.295" fill="#26c9d5"/><g transform="translate(751.26,626.05) scale(0.3295) rotate(0)"><path fill-rule="evenodd" clip-rule="evenodd" d="M10 20C15.5228 20 20 15.5228 20 10C20 4.47715 15.5228 0 10 0C4.47715 0 0 4.47715 0 10C0 15.5228 4.47715 20 10 20ZM10 17C13.866 17 17 13.866 17 10C17 6.13401 13.866 3 10 3C6.13401 3 3 6.13401 3 10C3 13.866 6.13401 17 10 17Z" fill="#38ced8"/></g><circle cx="761.145" cy="629.3449999999999" r="3.295" fill="#fff4e8"/><circle cx="889.65" cy="626.0500000000001" r="6.59" fill="#b7edf1"/><g transform="translate(948.96,619.46) scale(0.659) rotate(0)"><path fill-rule="evenodd" clip-rule="evenodd" d="M10 20C15.5228 20 20 15.5228 20 10C20 4.47715 15.5228 0 10 0C4.47715 0 0 4.47715 0 10C0 15.5228 4.47715 20 10 20ZM10 17C13.866 17 17 13.866 17 10C17 6.13401 13.866 3 10 3C6.13401 3 3 6.13401 3 10C3 13.866 6.13401 17 10 17Z" fill="#60d8e0"/></g><rect x="1014.8600000000001" y="619.46" width="13.18" height="13.18" fill="#ffffff"/><circle cx="1018.155" cy="622.755" r="3.295" fill="#5bd6df"/><g transform="translate(1021.45,619.46) scale(0.3295) rotate(0)"><path fill-rule="evenodd" clip-rule="evenodd" d="M10 20C15.5228 20 20 15.5228 20 10C20 4.47715 15.5228 0 10 0C4.47715 0 0 4.47715 0 10C0 15.5228 4.47715 20 10 20ZM10 17C13.866 17 17 13.866 17 10C17 6.13401 13.866 3 10 3C6.13401 3 3 6.13401 3 10C3 13.866 6.13401 17 10 17Z" fill="#c2f0f3"/></g><circle cx="1024.7450000000001" cy="629.3449999999999" r="3.295" fill="#febc71"/><g transform="translate(1080.76,619.46) scale(0.659) rotate(0)"><path fill-rule="evenodd" clip-rule="evenodd" d="M10 20C15.5228 20 20 15.5228 20 10C20 4.47715 15.5228 0 10 0C4.47715 0 0 4.47715 0 10C0 15.5228 4.47715 20 10 20ZM10 17C13.866 17 17 13.866 17 10C17 6.13401 13.866 3 10 3C6.13401 3 3 6.13401 3 10C3 13.866 6.13401 17 10 17Z" fill="#f6fdfd"/></g><rect x="1146.66" y="619.46" width="13.18" height="13.18" fill="#ffffff"/><circle cx="1156.545" cy="622.755" r="3.295" fill="#c7f1f4"/><g transform="translate(1146.66,626.05) scale(0.3295) rotate(0)"><path fill-rule="evenodd" clip-rule="evenodd" d="M10 20C15.5228 20 20 15.5228 20 10C20 4.47715 15.5228 0 10 0C4.47715 0 0 4.47715 0 10C0 15.5228 4.47715 20 10 20ZM10 17C13.866 17 17 13.866 17 10C17 6.13401 13.866 3 10 3C6.13401 3 3 6.13401 3 10C3 13.866 6.13401 17 10 17Z" fill="#fec37f"/></g><circle cx="1156.545" cy="629.3449999999999" r="3.295" fill="#fedfbb"/></g></svg>