<svg xmlns="http://www.w3.org/2000/svg" width="371.18" height="42.42" viewBox="0 0 98.208 11.224"><path d="M29.907 44.096c13.095 1.694 26.277 2.618 39.468 3.127 5.702.22 11.407.4 17.113.454 5.318.051 10.636-.091 15.954-.137 7.052-.37 13.723-.47 20.66-1.57 1.206-.19 2.97.146 3.54-.932 2.127-4.018-2.816-4.218-4.382-4.45-1.75-.26-3.517-.392-5.275-.588-2.094-.13-4.186-.28-6.28-.39-5.057-.268-8.975-.432-14.05-.393-8.182.063-16.362.567-24.526 1.054-1.716.17-16.02 1.607-17.906 1.723-2.677.165-12.54.324-15.675.383-.425.086.798 6.091 1.223 6.005 2.495.144 4.986.41 7.485.43 8.97.073 17.887-1.097 26.794-1.96 3.415-.334 13.158-1.33 16.807-1.54 9.034-.518 18.09.077 27.13-.163 1.722-.088 3.451-.088 5.167-.265 1.77-.183 6.426-.314 2.509-4.355-.948-.978-2.623-.763-3.969-.97-7.209-1.107-14.01-1.256-21.347-1.669-5.348-.099-10.695-.291-16.043-.297-5.65-.007-11.3.11-16.95.26q-7.587.204-15.167.594c-7.738.397-15.51.911-23.164 2.178-.246.062.639 3.534.884 3.471" style="fill:#fd9d30;fill-opacity:1;fill-rule:nonzero;stroke:none;stroke-width:.264583" transform="translate(-28.98 -37.592)"/></svg>