<svg xmlns="http://www.w3.org/2000/svg" width="485.445" height="206.947" viewBox="0 0 128.441 54.755"><g style="fill:#fd9d30;fill-opacity:1"><path d="M80.277 109.187c-.743-.595.265.195-1.21-.823-.52-.36-1.018-.752-1.54-1.109-2.24-1.53-4.57-2.935-6.866-4.38-2.156-1.462-4.254-3.007-6.382-4.51-1.178-.831-2.325-1.644-3.623-2.272-.688 1.271-.072 3.141-1.06 4.189-.72.76-2.206-.134-3.118.38-.395.224.747.525 1.154.727 1.952.97 2.766 1.05 5.027 1.666 6.174 1.082 4.642.965 13.023 1.322 5.655.242 9.766.119 15.444-.306 5.856-.44 9.475-.991 15.257-1.748 2.294-.37 4.583-.767 6.88-1.111 2.265-.34 4.546-.575 6.806-.943 4.408-.717 7.482-1.42 11.763-2.495 1.666-.418 3.337-.825 4.98-1.324 1.339-.407 2.64-.928 3.959-1.393l2.597-1.227c.572-.272-3.272-8.365-3.845-8.094l-3.102.1c-5.774.648-2.756.274-9.051 1.14-3.94.465-7.899.76-11.842 1.199-2.256.25-4.502.583-6.76.808-2.302.23-4.611.371-6.916.556-7.596.63-15.175 1.263-22.724 2.336-2.271.322-4.558.575-6.797 1.074-.976.217-1.83.838-2.803 1.065-1.319.309-2.686.356-4.028.533-1.545.182-3.094.325-4.637.522-.315.04-.622.146-.94.161-1.302.062-2.895-.748-3.911.07-2.117 1.702-1.398 3.33-.868 4.986.167.31.308.636.5.931.629.957 1.504 1.944 2.277 2.76 2.023 2.137 4.233 4.078 6.73 5.649.89.572 1.758 1.183 2.673 1.717 3.312 1.93 6.924 3.274 10.715 3.867.425.158 2.664-5.865 2.238-6.023" style="fill:#fd9d30;fill-opacity:1;fill-rule:nonzero;stroke:none;stroke-width:.264583" transform="translate(-42.782 -85.73)"/><path d="M44.938 112.623c.696.209 1.38.465 2.088.626 5.362 1.216 10.878 1.474 16.337 1.915 14.135 1.14 5.726.646 21.068 1.252 11.007.08 13.294.208 24.314-.157 3.814-.126 7.624-.348 11.435-.537 11.643-.575 7.078.003 15.01-1.312 1.012.275 4.905-14.034 3.893-14.31-4.268-.356-8.529-.807-12.804-1.069-3.595-.22-7.198-.306-10.8-.376-11.968-.23-23.943.11-35.867 1.196-16.197 1.92-5.377.432-19.84 2.861-4.983.837-10.153 1.324-15.004 2.829-.662.205-1.283.524-1.925.787-.445.148 1.65 6.443 2.095 6.295" style="fill:#fd9d30;fill-opacity:1;fill-rule:nonzero;stroke:none;stroke-width:.264583" transform="translate(-42.782 -85.73)"/><path d="m57.55 117.201 1.4.406c.05.175-.02.457.149.525.982.396 2.054.52 3.082.777 1.44.359 2.89.675 4.32 1.07 16.179 4.468-5.032-.998 14.161 3.845 11.095 2.409 7.081 1.602 18.511 3.813 8.909 1.723 12.057 2.538 21.155 3.297 9.75.812 13.438.37 23.706.058 1.033-.267-2.747-14.883-3.78-14.616-3.244-.252-12.564-.973-14.248-1.132-3.423-.323-6.837-.727-10.254-1.106-3.482-.385-6.97-.726-10.444-1.186-3.27-.433-6.514-1.046-9.783-1.49-3.159-.43-6.331-.753-9.497-1.13-10.757-.67-6.135-.598-15.953-.458-5.409.077-3.874 0-8.609.334-1.445.102-2.898.129-4.334.317-.416.054-.795.27-1.192.405-.444.114 1.166 6.385 1.61 6.271" style="fill:#fd9d30;fill-opacity:1;fill-rule:nonzero;stroke:none;stroke-width:.264583" transform="translate(-42.782 -85.73)"/><path d="M56.015 122.726c1.651.51 3.407.554 5.068 1.012.6.166 1.112.584 1.712.753 1.91.54 3.857.946 5.798 1.369 7.552 1.645 8.215 1.646 16.163 2.965 9.681 1.261 8.933 1.282 18.716 2.078 7.768.632 11.815 1.005 19.592.67 4.222-.182 8.428-.621 12.643-.932.992-.302-3.28-14.337-4.272-14.035-3.692-.026-10.68-.071-13.533-.124-3.156-.058-6.315-.073-9.466-.25-3.086-.173-6.159-.54-9.239-.8-3.127-.265-6.256-.517-9.384-.776-7.29-.405-10.218-.723-17.384-.547-2.25.055-4.495.27-6.742.408-4.554.28-7.63.105-11.72 1.677-.461.145 1.586 6.676 2.048 6.532" style="fill:#fd9d30;fill-opacity:1;fill-rule:nonzero;stroke:none;stroke-width:.264583" transform="translate(-42.782 -85.73)"/><path d="M85.024 122.704c1.037.197 2.065.447 3.111.59 3.657.501 7.157.649 10.857.804 6.167.259 8.819.327 15.114.192 2.937-.064 5.872-.21 8.808-.315 6.176-.637 10.744-.934 16.797-2.222 2.212-.471 4.363-1.194 6.544-1.79.838-.341-3.977-12.185-4.815-11.844-2.232.118-4.468.19-6.697.353-2.752.202-13.768 1.288-16.36 1.54l-8.306.958c-2.562.248-5.127.459-7.684.743-5.584.622-11.836 1.348-17.21 3.117-.938.31-1.813.785-2.72 1.178-.473.18 2.088 6.877 2.561 6.696" style="fill:#fd9d30;fill-opacity:1;fill-rule:nonzero;stroke:none;stroke-width:.264583" transform="translate(-42.782 -85.73)"/><path d="M119.944 113.832c5.218.593-.06.033 6.645.576 16.074 1.3-6.1-.325 12.077.888 1.176.078 2.347.244 3.525.281 2.064.065 4.13.018 6.196.026.84.26 4.504-11.618 3.664-11.877-2.165-.232-4.319-.62-6.495-.697-5.716-.202-11.247-.062-16.875.834-1.835.291-3.644.73-5.445 1.183-1.273.32-2.535.689-3.77 1.13-.803.288-1.555.701-2.333 1.051-.467.2 2.344 6.804 2.811 6.605" style="fill:#fd9d30;fill-opacity:1;fill-rule:nonzero;stroke:none;stroke-width:.264583" transform="translate(-42.782 -85.73)"/><path d="M125.431 104.734c.787.132 1.566.318 2.36.396 2.362.23 6.296.237 8.529.308 2.089.066 4.177.186 6.266.24 3.695.098 10.362.134 14.051.164l3.03-.237c.853.238 4.219-11.818 3.366-12.056l-9.85-.558c-2.464.083-4.935.067-7.395.25-5.391.4-7.902.923-13.044 2.049-3.321.726-6.706 1.457-9.724 3.09-.45.17 1.962 6.525 2.411 6.354" style="fill:#fd9d30;fill-opacity:1;fill-rule:nonzero;stroke:none;stroke-width:.264583" transform="translate(-42.782 -85.73)"/><path d="M129.213 98.75c2.176.29 4.401.562 6.515 1.164.68.194 1.27.648 1.958.813 1.768.426 3.583.627 5.373.952 1.965.357 3.929.727 5.893 1.091.816.32 5.35-11.214 4.534-11.534-6.103-.698-6.717-.984-12.719-.861-5.094.104-8.625.095-13.198 1.925-.38.152-.726.378-1.089.567-.416.193 2.318 6.075 2.733 5.882M156.063 109.579c-.43-.255-.841-.547-1.291-.766a27 27 0 0 0-2.34-1.002c-3.955-1.483-6.889-2.459-11.255-2.976-9.417-1.117-12.932-.82-22.013-.727-1.054.324 3.525 15.237 4.58 14.914 2.999-.317 6.007-.562 8.998-.951 1.609-.21 3.187-.614 4.793-.844 2.31-.33 4.64-.516 6.951-.836 16.184-2.24-2.186.025 7.14-.997.402-.044.799-.12 1.198-.18.399.23 3.637-5.406 3.239-5.635" style="fill:#fd9d30;fill-opacity:1;fill-rule:nonzero;stroke:none;stroke-width:.264583" transform="translate(-42.782 -85.73)"/><path d="M163.33 108.628c-.398-.357-.752-.77-1.194-1.07-2.786-1.898-7.177-2.924-10.407-3.248-4.94-.495-11.474-.522-16.55-.609l-8.014-.07c-.949.28 2.993 13.699 3.942 13.42l7.763-.715c13.685-1.353 1.956.14 10.013-1.459 1.6-.318 3.22-.535 4.83-.803.998-.226 1.99-.477 2.994-.678.452-.091.922-.087 1.37-.198.183-.045.333-.177.5-.266.304.336 5.057-3.968 4.753-4.304" style="fill:#fd9d30;fill-opacity:1;fill-rule:nonzero;stroke:none;stroke-width:.264583" transform="translate(-42.782 -85.73)"/><path d="M165.454 111.744c-2.902-.168-.182-.044-3.988-.077-5.019-.044-3.634-.174-9.383.04-5.555.207-8.727.487-14.369.891l-8.25.862c-.943.365 4.212 13.697 5.155 13.332l7.987-1.427c2.468-.505 4.95-.952 7.406-1.515 3.716-.852 7.68-1.947 11.305-3.2 1.18-.408 2.33-.895 3.49-1.359.694-.277 1.391-.552 2.07-.865.398-.183.772-.413 1.158-.62.428-.182-2.152-6.245-2.58-6.063" style="fill:#fd9d30;fill-opacity:1;fill-rule:nonzero;stroke:none;stroke-width:.264583" transform="translate(-42.782 -85.73)"/><path d="M159.758 127.656c-.503-.328-.978-.704-1.508-.985-.996-.53-2.005-1.044-3.06-1.443-3.394-1.284-7.334-2.176-10.842-2.883-2.971-.599-15.04-2.638-17.354-3.035-1.078-.345-5.965 14.9-4.887 15.246 3.376-.086 6.753-.182 10.13-.259 6.449-.147 12.906-.221 19.344-.677 1.014-.071 2.021-.22 3.034-.306.487-.042.975-.051 1.463-.077.395.26 4.075-5.32 3.68-5.58" style="fill:#fd9d30;fill-opacity:1;fill-rule:nonzero;stroke:none;stroke-width:.264583" transform="translate(-42.782 -85.73)"/><path d="M147.115 125.361c-2.17-1.189-4.607-1.763-7.012-2.252-3.526-.717-5.685-1.07-9.357-1.165-2.726-.071-5.453.03-8.18.045-1.771.127-3.545.233-5.315.382-4.877.41-5.595.493-10.35 1.299-1.583.268-3.16.573-4.737.87-1.552.292-3.087.68-4.651.898-1.819.252-3.657.34-5.485.51-9.39.748-18.811.907-28.22 1.26-2.403.09-4.806.211-7.208.317-.916.257 2.715 13.212 3.631 12.956 2.508-.023 5.018.022 7.525-.068a149 149 0 0 0 28.665-3.83c1.75-.433 3.487-.932 5.252-1.3 2.522-.528 6.514-1.016 9.063-1.285.979-.104 8.993-.822 9.867-.881 1.685-.115 3.372-.166 5.058-.25 4.545-.544.243-.065 7.169-.628 1.413-.115 2.82-.29 4.235-.388 2.41-.165 4.836-.105 7.243-.347.434.199 3.242-5.944 2.807-6.143" style="fill:#fd9d30;fill-opacity:1;fill-rule:nonzero;stroke:none;stroke-width:.264583" transform="translate(-42.782 -85.73)"/><path d="M115.825 131.309c-.576-.532-1.091-1.139-1.729-1.596-.962-.69-1.992-1.286-3.046-1.825-1.901-.973-3.795-1.99-5.806-2.707-5.359-1.91-11.46-2.984-17.069-3.619-3.175-.359-6.374-.45-9.561-.675-9.748.077-19.606-.342-29.23 1.544-1.958.384-3.853 1.041-5.78 1.561-.791.289 3.287 11.488 4.079 11.2 1.947.066 3.893.167 5.84.2 6.871.117 13.745-.173 20.61.3 5.403.162 12.684.396 18.102.5 2.683.052 5.367.135 8.05.101 2.05-.025 4.095-.268 6.145-.279 8.718-.043-.405.467 4.94.123.341.315 4.797-4.513 4.455-4.828" style="fill:#fd9d30;fill-opacity:1;fill-rule:nonzero;stroke:none;stroke-width:.264583" transform="translate(-42.782 -85.73)"/><path d="M62.996 125.673c6.903 1.89 14.1 2.126 21.184 2.738 19.23 1.663 3.251.544 23.856 1.822 1.282-.33-3.39-18.461-4.672-18.131-13.151.846-11.047.373-23.384 2.387-6.333 1.033-12.73 2.2-18.594 4.913-.444.114 1.167 6.385 1.61 6.271" style="fill:#fd9d30;fill-opacity:1;fill-rule:nonzero;stroke:none;stroke-width:.264583" transform="translate(-42.782 -85.73)"/><path d="M60.175 139.86c1.58-.411 2.946-1.358 4.449-1.956.335-.133 2.233-.696 2.58-.8.38-.07.756-.163 1.14-.209 1.302-.157 2.632-.106 3.94-.11 1.012-.003 2.024-.027 3.036-.036 3.52.026 7.038-.069 10.554-.222.503-.039 1.017-.008 1.51-.116.214-.046-.865-.021-.652-.07.353-.083.725-.025 1.088-.03.94-.016 1.549.119 2.46.326 2.954.906 6.038.638 9.046.183 2.946-.217 5.9-.335 8.853-.394a67 67 0 0 0 8.675-.812c1.632-.369 3.292-.593 4.914-1.007.598-.153 1.187-.344 1.786-.498-.471-.019 1.729-.116 1.3-.047-.34.056-1.375.046-1.031.053 1.477.032 2.963-.027 4.44-.056 2.062-.37 4.153-.426 6.23-.653 3.195-.343 6.318-1.118 9.48-1.657 3.494-.36 7.008-.411 10.51-.616 1.57-.123 3.137-.298 4.662-.701.761-.201 1.484-.495 2.252-.669-.117-.052 1.236.032.932.106-.34.083-.706-.054-1.049.013-.236.046.479.046.719.052 2.617.06 1.868.102 3.512-.064.818-.154 1.785-.062 2.468-.614.403-.16-1.866-5.852-2.268-5.691-.236-.417-1.759-.113-2.19-.162-1.298-.007-.34-.009.443.04.274.017-.548-.022-.822-.027-1.406-.027-2.696-.077-4.067.145-2.28.13-4.568-.15-6.85.04-3.22.119-.517-.007-3.75.218-2.497.173-5.007.319-7.457.874-1.66.297-3.318.61-4.962.987-.977.225-1.94.51-2.916.734-.408.094-.822.163-1.233.244-1.833.31-3.658.76-5.527.747l-.896.035c-.284.01-1.062-.166-.853.029.218.204 1.196.002.897.012-1.59.057-3.159-.024-4.72.323-1.005.137-2.01.249-3.013.408-.801.128-1.597.29-2.398.418-.366.058-.734.097-1.101.145-1.24.111-2.489.235-3.735.262-1.516.034-3.034-.077-4.55.005-3.12.19-6.259.425-9.315 1.122-.326.049-.652.105-.98.145-.325.04-.808-.184-.978.096-.157.258.674-.17.905.024.004.003-1.327.183-1.396.177-.281-.023-.55-.13-.824-.196-1.49-.44-3.094-1.033-4.645-1.16-1.123-.091-2.25-.114-3.376-.166-.544-.026-1.088-.045-1.632-.067a116 116 0 0 0-5.497.182c-.62.035-2.692.212-3.363.239-.519.02-1.038.012-1.557.017-3.325.065-6.679.098-9.902 1.03-.577.199-1.168.363-1.732.596-2.03.836-4.13 2.018-5.65 3.633-.242.258-.43.561-.646.842-.305.336 4.448 4.64 4.752 4.304" style="fill:#fd9d30;fill-opacity:1;fill-rule:nonzero;stroke:none;stroke-width:.264583" transform="translate(-42.782 -85.73)"/><path d="M153.102 127.574c.248.05.493.121.744.15.983.107 1.904.087 2.893.065 1.714-.037 3.412-.182 5.118-.34 1.864-.266 3.788-.06 5.64-.432.922-.184 1.07-.308 1.856-.683 1.29-1.027 2.113-1.461 1.805-4.034-.106-.883-1.075-1.433-1.738-2.026-.36-.32-2.095-.623-2.555-.719a49.5 49.5 0 0 0-8.896-.673c-1.45.108-2.91.07-4.357.2-.039.003-2.68.536-2.683.537-.465.083-3.042.472-3.354.52-.496.242 2.934 7.264 3.43 7.021 1.25-.443 2.555-1.011 3.877-1.216.268-.042 1.042.095.812-.05-.244-.155-1.13-.104-.867.015.339.154.741.064 1.112.096 1.472.119 2.937.184 4.413.25 1.478.067 2.962.221 4.438.005q.506-.044 1.012-.091c.259-.025.54.03.775-.08.082-.039.022-.193-.025-.27-.393-.655-1.26-1.137-1.28-1.9-.039-1.515.658-2.52 1.367-3.605-.755-.26-1.52-.29-2.318-.323-1.642-.069-3.28-.005-4.918.114-2.9.224-5.892.401-8.61 1.528-.42.163 1.888 6.104 2.309 5.94" style="fill:#fd9d30;fill-opacity:1;fill-rule:nonzero;stroke:none;stroke-width:.264583" transform="translate(-42.782 -85.73)"/><path d="M168.744 124.148c-1.403-.788-2.98-1.22-4.563-1.475-.869-.14-1.744-.291-2.625-.299-1.792-.016-3.582.152-5.373.228-.59.21 2.384 8.567 2.975 8.356.693-.994.155-.425 2.53-.665 1.357-.136 2.76-.094 4.079-.497.399.21 3.376-5.437 2.977-5.648" style="fill:#fd9d30;fill-opacity:1;fill-rule:nonzero;stroke:none;stroke-width:.264583" transform="translate(-42.782 -85.73)"/><path d="M155.263 131.283c.962.394 2.035.33 3.013.643.139.045.138.305.28.337 1.124.252 4.253.45 5.393.537.593.203 3.466-8.192 2.872-8.396-3.154-.344-2.79-.414-5.999-.318-2.69.08-5.272-.012-7.745 1.1-.432.154 1.755 6.252 2.186 6.097" style="fill:#fd9d30;fill-opacity:1;fill-rule:nonzero;stroke:none;stroke-width:.264583" transform="translate(-42.782 -85.73)"/><path d="M155.22 132.717c.277.07.55.162.832.21 1.154.2 2.071.211 3.268.263 2.724.117 5.444.078 8.17.083.614-.198-2.176-8.894-2.791-8.696l-2.997.441c-.849.111-1.699.21-2.545.333-1.766.256-3.616.518-5.327 1.054-.315.1-.612.248-.918.372-.42.163 1.887 6.104 2.307 5.94" style="fill:#fd9d30;fill-opacity:1;fill-rule:nonzero;stroke:none;stroke-width:.264583" transform="translate(-42.782 -85.73)"/></g></svg>