<?xml version="1.0" standalone="no"?><svg xmlns:xlink="http://www.w3.org/1999/xlink" xmlns="http://www.w3.org/2000/svg" viewBox="0 0 2000 666.6666666666666" preserveAspectRatio="xMaxYMax slice"><g transform="scale(1.3831258644536653)"><rect x="0" y="0" width="1446" height="482" fill="#ffffff"/><g transform="translate(128.53,21.42) scale(0.5355000000000001) rotate(0)"><rect width="20" height="2" fill="#b8e9ec"/><rect y="4" width="20" height="2" fill="#b8e9ec"/><rect y="8" width="20" height="2" fill="#b8e9ec"/><rect y="12" width="20" height="2" fill="#b8e9ec"/><rect y="16" width="20" height="2" fill="#b8e9ec"/></g><g transform="translate(235.64,21.42) scale(0.5355000000000001) rotate(0)"><rect width="20" height="2" fill="#b2e7ea"/><rect y="4" width="20" height="2" fill="#b2e7ea"/><rect y="8" width="20" height="2" fill="#b2e7ea"/><rect y="12" width="20" height="2" fill="#b2e7ea"/><rect y="16" width="20" height="2" fill="#b2e7ea"/></g><g transform="translate(396.31,21.42) scale(0.5355000000000001) rotate(0)"><rect width="2" height="20" fill="#fed6c2"/><rect x="4" width="2" height="20" fill="#fed6c2"/><rect x="8" width="2" height="20" fill="#fed6c2"/><rect x="12" width="2" height="20" fill="#fed6c2"/><rect x="16" width="2" height="20" fill="#fed6c2"/></g><g transform="translate(449.87,21.42) scale(0.5355000000000001) rotate(0)"><rect width="20" height="2" fill="#fd9b6a"/><rect y="4" width="20" height="2" fill="#fd9b6a"/><rect y="8" width="20" height="2" fill="#fd9b6a"/><rect y="12" width="20" height="2" fill="#fd9b6a"/><rect y="16" width="20" height="2" fill="#fd9b6a"/></g><g transform="translate(717.64,21.42) scale(0.5355000000000001) rotate(0)"><rect width="20" height="2" fill="#fdb48f"/><rect y="4" width="20" height="2" fill="#fdb48f"/><rect y="8" width="20" height="2" fill="#fdb48f"/><rect y="12" width="20" height="2" fill="#fdb48f"/><rect y="16" width="20" height="2" fill="#fdb48f"/></g><g transform="translate(771.2,21.42) scale(0.5355000000000001) rotate(0)"><rect width="20" height="2" fill="#fc884e"/><rect y="4" width="20" height="2" fill="#fc884e"/><rect y="8" width="20" height="2" fill="#fc884e"/><rect y="12" width="20" height="2" fill="#fc884e"/><rect y="16" width="20" height="2" fill="#fc884e"/></g><g transform="translate(878.31,21.42) scale(0.5355000000000001) rotate(0)"><rect width="2" height="20" fill="#e4f6f8"/><rect x="4" width="2" height="20" fill="#e4f6f8"/><rect x="8" width="2" height="20" fill="#e4f6f8"/><rect x="12" width="2" height="20" fill="#e4f6f8"/><rect x="16" width="2" height="20" fill="#e4f6f8"/></g><g transform="translate(931.87,21.42) scale(0.5355000000000001) rotate(0)"><rect width="20" height="2" fill="#fd9764"/><rect y="4" width="20" height="2" fill="#fd9764"/><rect y="8" width="20" height="2" fill="#fd9764"/><rect y="12" width="20" height="2" fill="#fd9764"/><rect y="16" width="20" height="2" fill="#fd9764"/></g><g transform="translate(985.42,21.42) scale(0.5355000000000001) rotate(0)"><rect width="2" height="20" fill="#8ddbe0"/><rect x="4" width="2" height="20" fill="#8ddbe0"/><rect x="8" width="2" height="20" fill="#8ddbe0"/><rect x="12" width="2" height="20" fill="#8ddbe0"/><rect x="16" width="2" height="20" fill="#8ddbe0"/></g><g transform="translate(1038.98,21.42) scale(0.5355000000000001) rotate(0)"><rect width="20" height="2" fill="#fd9764"/><rect y="4" width="20" height="2" fill="#fd9764"/><rect y="8" width="20" height="2" fill="#fd9764"/><rect y="12" width="20" height="2" fill="#fd9764"/><rect y="16" width="20" height="2" fill="#fd9764"/></g><g transform="translate(1092.53,21.42) scale(0.5355000000000001) rotate(0)"><rect width="20" height="2" fill="#fda77b"/><rect y="4" width="20" height="2" fill="#fda77b"/><rect y="8" width="20" height="2" fill="#fda77b"/><rect y="12" width="20" height="2" fill="#fda77b"/><rect y="16" width="20" height="2" fill="#fda77b"/></g><g transform="translate(1199.64,21.42) scale(0.5355000000000001) rotate(0)"><rect width="2" height="20" fill="#fc8345"/><rect x="4" width="2" height="20" fill="#fc8345"/><rect x="8" width="2" height="20" fill="#fc8345"/><rect x="12" width="2" height="20" fill="#fc8345"/><rect x="16" width="2" height="20" fill="#fc8345"/></g><g transform="translate(1253.2,21.42) scale(0.5355000000000001) rotate(0)"><rect width="20" height="2" fill="#fed5c0"/><rect y="4" width="20" height="2" fill="#fed5c0"/><rect y="8" width="20" height="2" fill="#fed5c0"/><rect y="12" width="20" height="2" fill="#fed5c0"/><rect y="16" width="20" height="2" fill="#fed5c0"/></g><g transform="translate(21.42,74.98) scale(0.5355000000000001) rotate(0)"><rect width="2" height="20" fill="#ffede3"/><rect x="4" width="2" height="20" fill="#ffede3"/><rect x="8" width="2" height="20" fill="#ffede3"/><rect x="12" width="2" height="20" fill="#ffede3"/><rect x="16" width="2" height="20" fill="#ffede3"/></g><g transform="translate(182.09,74.98) scale(0.5355000000000001) rotate(0)"><rect width="2" height="20" fill="#fdb793"/><rect x="4" width="2" height="20" fill="#fdb793"/><rect x="8" width="2" height="20" fill="#fdb793"/><rect x="12" width="2" height="20" fill="#fdb793"/><rect x="16" width="2" height="20" fill="#fdb793"/></g><g transform="translate(289.2,74.98) scale(0.5355000000000001) rotate(0)"><rect width="2" height="20" fill="#31bec7"/><rect x="4" width="2" height="20" fill="#31bec7"/><rect x="8" width="2" height="20" fill="#31bec7"/><rect x="12" width="2" height="20" fill="#31bec7"/><rect x="16" width="2" height="20" fill="#31bec7"/></g><g transform="translate(342.76,74.98) scale(0.5355000000000001) rotate(0)"><rect width="2" height="20" fill="#83d8de"/><rect x="4" width="2" height="20" fill="#83d8de"/><rect x="8" width="2" height="20" fill="#83d8de"/><rect x="12" width="2" height="20" fill="#83d8de"/><rect x="16" width="2" height="20" fill="#83d8de"/></g><g transform="translate(396.31,74.98) scale(0.5355000000000001) rotate(0)"><rect width="2" height="20" fill="#fff2ec"/><rect x="4" width="2" height="20" fill="#fff2ec"/><rect x="8" width="2" height="20" fill="#fff2ec"/><rect x="12" width="2" height="20" fill="#fff2ec"/><rect x="16" width="2" height="20" fill="#fff2ec"/></g><g transform="translate(449.87,74.98) scale(0.5355000000000001) rotate(0)"><rect width="2" height="20" fill="#fc884e"/><rect x="4" width="2" height="20" fill="#fc884e"/><rect x="8" width="2" height="20" fill="#fc884e"/><rect x="12" width="2" height="20" fill="#fc884e"/><rect x="16" width="2" height="20" fill="#fc884e"/></g><g transform="translate(931.87,74.98) scale(0.5355000000000001) rotate(0)"><rect width="20" height="2" fill="#19b7c1"/><rect y="4" width="20" height="2" fill="#19b7c1"/><rect y="8" width="20" height="2" fill="#19b7c1"/><rect y="12" width="20" height="2" fill="#19b7c1"/><rect y="16" width="20" height="2" fill="#19b7c1"/></g><g transform="translate(1092.53,74.98) scale(0.5355000000000001) rotate(0)"><rect width="20" height="2" fill="#fda579"/><rect y="4" width="20" height="2" fill="#fda579"/><rect y="8" width="20" height="2" fill="#fda579"/><rect y="12" width="20" height="2" fill="#fda579"/><rect y="16" width="20" height="2" fill="#fda579"/></g><g transform="translate(1146.09,74.98) scale(0.5355000000000001) rotate(0)"><rect width="2" height="20" fill="#fdac82"/><rect x="4" width="2" height="20" fill="#fdac82"/><rect x="8" width="2" height="20" fill="#fdac82"/><rect x="12" width="2" height="20" fill="#fdac82"/><rect x="16" width="2" height="20" fill="#fdac82"/></g><g transform="translate(1306.76,74.98) scale(0.5355000000000001) rotate(0)"><rect width="20" height="2" fill="#fd8b52"/><rect y="4" width="20" height="2" fill="#fd8b52"/><rect y="8" width="20" height="2" fill="#fd8b52"/><rect y="12" width="20" height="2" fill="#fd8b52"/><rect y="16" width="20" height="2" fill="#fd8b52"/></g><g transform="translate(1360.31,74.98) scale(0.5355000000000001) rotate(0)"><rect width="20" height="2" fill="#fd9f70"/><rect y="4" width="20" height="2" fill="#fd9f70"/><rect y="8" width="20" height="2" fill="#fd9f70"/><rect y="12" width="20" height="2" fill="#fd9f70"/><rect y="16" width="20" height="2" fill="#fd9f70"/></g><g transform="translate(21.42,128.53) scale(0.5355000000000001) rotate(0)"><rect width="2" height="20" fill="#17b6c0"/><rect x="4" width="2" height="20" fill="#17b6c0"/><rect x="8" width="2" height="20" fill="#17b6c0"/><rect x="12" width="2" height="20" fill="#17b6c0"/><rect x="16" width="2" height="20" fill="#17b6c0"/></g><g transform="translate(74.98,128.53) scale(0.5355000000000001) rotate(0)"><rect width="20" height="2" fill="#fffbf9"/><rect y="4" width="20" height="2" fill="#fffbf9"/><rect y="8" width="20" height="2" fill="#fffbf9"/><rect y="12" width="20" height="2" fill="#fffbf9"/><rect y="16" width="20" height="2" fill="#fffbf9"/></g><g transform="translate(717.64,128.53) scale(0.5355000000000001) rotate(0)"><rect width="20" height="2" fill="#fc732e"/><rect y="4" width="20" height="2" fill="#fc732e"/><rect y="8" width="20" height="2" fill="#fc732e"/><rect y="12" width="20" height="2" fill="#fc732e"/><rect y="16" width="20" height="2" fill="#fc732e"/></g><g transform="translate(771.2,128.53) scale(0.5355000000000001) rotate(0)"><rect width="20" height="2" fill="#20b9c3"/><rect y="4" width="20" height="2" fill="#20b9c3"/><rect y="8" width="20" height="2" fill="#20b9c3"/><rect y="12" width="20" height="2" fill="#20b9c3"/><rect y="16" width="20" height="2" fill="#20b9c3"/></g><g transform="translate(824.76,128.53) scale(0.5355000000000001) rotate(0)"><rect width="2" height="20" fill="#4ac6ce"/><rect x="4" width="2" height="20" fill="#4ac6ce"/><rect x="8" width="2" height="20" fill="#4ac6ce"/><rect x="12" width="2" height="20" fill="#4ac6ce"/><rect x="16" width="2" height="20" fill="#4ac6ce"/></g><g transform="translate(1038.98,128.53) scale(0.5355000000000001) rotate(0)"><rect width="2" height="20" fill="#22b9c3"/><rect x="4" width="2" height="20" fill="#22b9c3"/><rect x="8" width="2" height="20" fill="#22b9c3"/><rect x="12" width="2" height="20" fill="#22b9c3"/><rect x="16" width="2" height="20" fill="#22b9c3"/></g><g transform="translate(1199.64,128.53) scale(0.5355000000000001) rotate(0)"><rect width="20" height="2" fill="#56cad1"/><rect y="4" width="20" height="2" fill="#56cad1"/><rect y="8" width="20" height="2" fill="#56cad1"/><rect y="12" width="20" height="2" fill="#56cad1"/><rect y="16" width="20" height="2" fill="#56cad1"/></g><g transform="translate(21.42,182.09) scale(0.5355000000000001) rotate(0)"><rect width="20" height="2" fill="#bceaed"/><rect y="4" width="20" height="2" fill="#bceaed"/><rect y="8" width="20" height="2" fill="#bceaed"/><rect y="12" width="20" height="2" fill="#bceaed"/><rect y="16" width="20" height="2" fill="#bceaed"/></g><g transform="translate(396.31,182.09) scale(0.5355000000000001) rotate(0)"><rect width="20" height="2" fill="#fdae86"/><rect y="4" width="20" height="2" fill="#fdae86"/><rect y="8" width="20" height="2" fill="#fdae86"/><rect y="12" width="20" height="2" fill="#fdae86"/><rect y="16" width="20" height="2" fill="#fdae86"/></g><g transform="translate(503.42,182.09) scale(0.5355000000000001) rotate(0)"><rect width="2" height="20" fill="#17b6c0"/><rect x="4" width="2" height="20" fill="#17b6c0"/><rect x="8" width="2" height="20" fill="#17b6c0"/><rect x="12" width="2" height="20" fill="#17b6c0"/><rect x="16" width="2" height="20" fill="#17b6c0"/></g><g transform="translate(985.42,182.09) scale(0.5355000000000001) rotate(0)"><rect width="20" height="2" fill="#46c5cd"/><rect y="4" width="20" height="2" fill="#46c5cd"/><rect y="8" width="20" height="2" fill="#46c5cd"/><rect y="12" width="20" height="2" fill="#46c5cd"/><rect y="16" width="20" height="2" fill="#46c5cd"/></g><g transform="translate(1306.76,182.09) scale(0.5355000000000001) rotate(0)"><rect width="20" height="2" fill="#81d7dd"/><rect y="4" width="20" height="2" fill="#81d7dd"/><rect y="8" width="20" height="2" fill="#81d7dd"/><rect y="12" width="20" height="2" fill="#81d7dd"/><rect y="16" width="20" height="2" fill="#81d7dd"/></g><g transform="translate(21.42,235.64) scale(0.5355000000000001) rotate(0)"><rect width="20" height="2" fill="#a8e4e8"/><rect y="4" width="20" height="2" fill="#a8e4e8"/><rect y="8" width="20" height="2" fill="#a8e4e8"/><rect y="12" width="20" height="2" fill="#a8e4e8"/><rect y="16" width="20" height="2" fill="#a8e4e8"/></g><g transform="translate(342.76,235.64) scale(0.5355000000000001) rotate(0)"><rect width="2" height="20" fill="#feccb3"/><rect x="4" width="2" height="20" fill="#feccb3"/><rect x="8" width="2" height="20" fill="#feccb3"/><rect x="12" width="2" height="20" fill="#feccb3"/><rect x="16" width="2" height="20" fill="#feccb3"/></g><g transform="translate(717.64,235.64) scale(0.5355000000000001) rotate(0)"><rect width="20" height="2" fill="#fda375"/><rect y="4" width="20" height="2" fill="#fda375"/><rect y="8" width="20" height="2" fill="#fda375"/><rect y="12" width="20" height="2" fill="#fda375"/><rect y="16" width="20" height="2" fill="#fda375"/></g><g transform="translate(931.87,235.64) scale(0.5355000000000001) rotate(0)"><rect width="2" height="20" fill="#3bc1ca"/><rect x="4" width="2" height="20" fill="#3bc1ca"/><rect x="8" width="2" height="20" fill="#3bc1ca"/><rect x="12" width="2" height="20" fill="#3bc1ca"/><rect x="16" width="2" height="20" fill="#3bc1ca"/></g><g transform="translate(1038.98,235.64) scale(0.5355000000000001) rotate(0)"><rect width="20" height="2" fill="#3fc3cb"/><rect y="4" width="20" height="2" fill="#3fc3cb"/><rect y="8" width="20" height="2" fill="#3fc3cb"/><rect y="12" width="20" height="2" fill="#3fc3cb"/><rect y="16" width="20" height="2" fill="#3fc3cb"/></g><g transform="translate(1199.64,235.64) scale(0.5355000000000001) rotate(0)"><rect width="20" height="2" fill="#fffaf7"/><rect y="4" width="20" height="2" fill="#fffaf7"/><rect y="8" width="20" height="2" fill="#fffaf7"/><rect y="12" width="20" height="2" fill="#fffaf7"/><rect y="16" width="20" height="2" fill="#fffaf7"/></g><g transform="translate(449.87,289.2) scale(0.5355000000000001) rotate(0)"><rect width="20" height="2" fill="#b7e8ec"/><rect y="4" width="20" height="2" fill="#b7e8ec"/><rect y="8" width="20" height="2" fill="#b7e8ec"/><rect y="12" width="20" height="2" fill="#b7e8ec"/><rect y="16" width="20" height="2" fill="#b7e8ec"/></g><g transform="translate(556.98,289.2) scale(0.5355000000000001) rotate(0)"><rect width="20" height="2" fill="#fff8f5"/><rect y="4" width="20" height="2" fill="#fff8f5"/><rect y="8" width="20" height="2" fill="#fff8f5"/><rect y="12" width="20" height="2" fill="#fff8f5"/><rect y="16" width="20" height="2" fill="#fff8f5"/></g><g transform="translate(664.09,289.2) scale(0.5355000000000001) rotate(0)"><rect width="20" height="2" fill="#daf3f5"/><rect y="4" width="20" height="2" fill="#daf3f5"/><rect y="8" width="20" height="2" fill="#daf3f5"/><rect y="12" width="20" height="2" fill="#daf3f5"/><rect y="16" width="20" height="2" fill="#daf3f5"/></g><g transform="translate(717.64,289.2) scale(0.5355000000000001) rotate(0)"><rect width="20" height="2" fill="#d4f2f3"/><rect y="4" width="20" height="2" fill="#d4f2f3"/><rect y="8" width="20" height="2" fill="#d4f2f3"/><rect y="12" width="20" height="2" fill="#d4f2f3"/><rect y="16" width="20" height="2" fill="#d4f2f3"/></g><g transform="translate(824.76,289.2) scale(0.5355000000000001) rotate(0)"><rect width="20" height="2" fill="#2bbcc6"/><rect y="4" width="20" height="2" fill="#2bbcc6"/><rect y="8" width="20" height="2" fill="#2bbcc6"/><rect y="12" width="20" height="2" fill="#2bbcc6"/><rect y="16" width="20" height="2" fill="#2bbcc6"/></g><g transform="translate(985.42,289.2) scale(0.5355000000000001) rotate(0)"><rect width="2" height="20" fill="#fff6f1"/><rect x="4" width="2" height="20" fill="#fff6f1"/><rect x="8" width="2" height="20" fill="#fff6f1"/><rect x="12" width="2" height="20" fill="#fff6f1"/><rect x="16" width="2" height="20" fill="#fff6f1"/></g><g transform="translate(1038.98,289.2) scale(0.5355000000000001) rotate(0)"><rect width="20" height="2" fill="#fc722d"/><rect y="4" width="20" height="2" fill="#fc722d"/><rect y="8" width="20" height="2" fill="#fc722d"/><rect y="12" width="20" height="2" fill="#fc722d"/><rect y="16" width="20" height="2" fill="#fc722d"/></g><g transform="translate(1360.31,289.2) scale(0.5355000000000001) rotate(0)"><rect width="20" height="2" fill="#fdb089"/><rect y="4" width="20" height="2" fill="#fdb089"/><rect y="8" width="20" height="2" fill="#fdb089"/><rect y="12" width="20" height="2" fill="#fdb089"/><rect y="16" width="20" height="2" fill="#fdb089"/></g><g transform="translate(21.42,342.76) scale(0.5355000000000001) rotate(0)"><rect width="20" height="2" fill="#fec5a8"/><rect y="4" width="20" height="2" fill="#fec5a8"/><rect y="8" width="20" height="2" fill="#fec5a8"/><rect y="12" width="20" height="2" fill="#fec5a8"/><rect y="16" width="20" height="2" fill="#fec5a8"/></g><g transform="translate(74.98,342.76) scale(0.5355000000000001) rotate(0)"><rect width="20" height="2" fill="#ffe9de"/><rect y="4" width="20" height="2" fill="#ffe9de"/><rect y="8" width="20" height="2" fill="#ffe9de"/><rect y="12" width="20" height="2" fill="#ffe9de"/><rect y="16" width="20" height="2" fill="#ffe9de"/></g><g transform="translate(182.09,342.76) scale(0.5355000000000001) rotate(0)"><rect width="20" height="2" fill="#c9eef0"/><rect y="4" width="20" height="2" fill="#c9eef0"/><rect y="8" width="20" height="2" fill="#c9eef0"/><rect y="12" width="20" height="2" fill="#c9eef0"/><rect y="16" width="20" height="2" fill="#c9eef0"/></g><g transform="translate(235.64,342.76) scale(0.5355000000000001) rotate(0)"><rect width="2" height="20" fill="#fedac7"/><rect x="4" width="2" height="20" fill="#fedac7"/><rect x="8" width="2" height="20" fill="#fedac7"/><rect x="12" width="2" height="20" fill="#fedac7"/><rect x="16" width="2" height="20" fill="#fedac7"/></g><g transform="translate(342.76,342.76) scale(0.5355000000000001) rotate(0)"><rect width="2" height="20" fill="#fc7a38"/><rect x="4" width="2" height="20" fill="#fc7a38"/><rect x="8" width="2" height="20" fill="#fc7a38"/><rect x="12" width="2" height="20" fill="#fc7a38"/><rect x="16" width="2" height="20" fill="#fc7a38"/></g><g transform="translate(396.31,342.76) scale(0.5355000000000001) rotate(0)"><rect width="2" height="20" fill="#fec9af"/><rect x="4" width="2" height="20" fill="#fec9af"/><rect x="8" width="2" height="20" fill="#fec9af"/><rect x="12" width="2" height="20" fill="#fec9af"/><rect x="16" width="2" height="20" fill="#fec9af"/></g><g transform="translate(610.53,342.76) scale(0.5355000000000001) rotate(0)"><rect width="20" height="2" fill="#55cad1"/><rect y="4" width="20" height="2" fill="#55cad1"/><rect y="8" width="20" height="2" fill="#55cad1"/><rect y="12" width="20" height="2" fill="#55cad1"/><rect y="16" width="20" height="2" fill="#55cad1"/></g><g transform="translate(664.09,342.76) scale(0.5355000000000001) rotate(0)"><rect width="20" height="2" fill="#fdb48f"/><rect y="4" width="20" height="2" fill="#fdb48f"/><rect y="8" width="20" height="2" fill="#fdb48f"/><rect y="12" width="20" height="2" fill="#fdb48f"/><rect y="16" width="20" height="2" fill="#fdb48f"/></g><g transform="translate(771.2,342.76) scale(0.5355000000000001) rotate(0)"><rect width="2" height="20" fill="#7fd7dc"/><rect x="4" width="2" height="20" fill="#7fd7dc"/><rect x="8" width="2" height="20" fill="#7fd7dc"/><rect x="12" width="2" height="20" fill="#7fd7dc"/><rect x="16" width="2" height="20" fill="#7fd7dc"/></g><g transform="translate(985.42,342.76) scale(0.5355000000000001) rotate(0)"><rect width="2" height="20" fill="#fedccb"/><rect x="4" width="2" height="20" fill="#fedccb"/><rect x="8" width="2" height="20" fill="#fedccb"/><rect x="12" width="2" height="20" fill="#fedccb"/><rect x="16" width="2" height="20" fill="#fedccb"/></g><g transform="translate(1146.09,342.76) scale(0.5355000000000001) rotate(0)"><rect width="2" height="20" fill="#fffaf7"/><rect x="4" width="2" height="20" fill="#fffaf7"/><rect x="8" width="2" height="20" fill="#fffaf7"/><rect x="12" width="2" height="20" fill="#fffaf7"/><rect x="16" width="2" height="20" fill="#fffaf7"/></g><g transform="translate(1199.64,342.76) scale(0.5355000000000001) rotate(0)"><rect width="2" height="20" fill="#fc7e3f"/><rect x="4" width="2" height="20" fill="#fc7e3f"/><rect x="8" width="2" height="20" fill="#fc7e3f"/><rect x="12" width="2" height="20" fill="#fc7e3f"/><rect x="16" width="2" height="20" fill="#fc7e3f"/></g><g transform="translate(1306.76,342.76) scale(0.5355000000000001) rotate(0)"><rect width="20" height="2" fill="#fd9460"/><rect y="4" width="20" height="2" fill="#fd9460"/><rect y="8" width="20" height="2" fill="#fd9460"/><rect y="12" width="20" height="2" fill="#fd9460"/><rect y="16" width="20" height="2" fill="#fd9460"/></g><g transform="translate(21.42,396.31) scale(0.5355000000000001) rotate(0)"><rect width="2" height="20" fill="#fdb691"/><rect x="4" width="2" height="20" fill="#fdb691"/><rect x="8" width="2" height="20" fill="#fdb691"/><rect x="12" width="2" height="20" fill="#fdb691"/><rect x="16" width="2" height="20" fill="#fdb691"/></g><g transform="translate(128.53,396.31) scale(0.5355000000000001) rotate(0)"><rect width="20" height="2" fill="#f1fbfb"/><rect y="4" width="20" height="2" fill="#f1fbfb"/><rect y="8" width="20" height="2" fill="#f1fbfb"/><rect y="12" width="20" height="2" fill="#f1fbfb"/><rect y="16" width="20" height="2" fill="#f1fbfb"/></g><g transform="translate(556.98,396.31) scale(0.5355000000000001) rotate(0)"><rect width="20" height="2" fill="#5dccd3"/><rect y="4" width="20" height="2" fill="#5dccd3"/><rect y="8" width="20" height="2" fill="#5dccd3"/><rect y="12" width="20" height="2" fill="#5dccd3"/><rect y="16" width="20" height="2" fill="#5dccd3"/></g><g transform="translate(771.2,396.31) scale(0.5355000000000001) rotate(0)"><rect width="20" height="2" fill="#e1f6f7"/><rect y="4" width="20" height="2" fill="#e1f6f7"/><rect y="8" width="20" height="2" fill="#e1f6f7"/><rect y="12" width="20" height="2" fill="#e1f6f7"/><rect y="16" width="20" height="2" fill="#e1f6f7"/></g><g transform="translate(985.42,396.31) scale(0.5355000000000001) rotate(0)"><rect width="20" height="2" fill="#7cd6dc"/><rect y="4" width="20" height="2" fill="#7cd6dc"/><rect y="8" width="20" height="2" fill="#7cd6dc"/><rect y="12" width="20" height="2" fill="#7cd6dc"/><rect y="16" width="20" height="2" fill="#7cd6dc"/></g><g transform="translate(1199.64,396.31) scale(0.5355000000000001) rotate(0)"><rect width="20" height="2" fill="#fecfb8"/><rect y="4" width="20" height="2" fill="#fecfb8"/><rect y="8" width="20" height="2" fill="#fecfb8"/><rect y="12" width="20" height="2" fill="#fecfb8"/><rect y="16" width="20" height="2" fill="#fecfb8"/></g><g transform="translate(21.42,449.87) scale(0.5355000000000001) rotate(0)"><rect width="20" height="2" fill="#3ac1ca"/><rect y="4" width="20" height="2" fill="#3ac1ca"/><rect y="8" width="20" height="2" fill="#3ac1ca"/><rect y="12" width="20" height="2" fill="#3ac1ca"/><rect y="16" width="20" height="2" fill="#3ac1ca"/></g><g transform="translate(182.09,449.87) scale(0.5355000000000001) rotate(0)"><rect width="2" height="20" fill="#fc7734"/><rect x="4" width="2" height="20" fill="#fc7734"/><rect x="8" width="2" height="20" fill="#fc7734"/><rect x="12" width="2" height="20" fill="#fc7734"/><rect x="16" width="2" height="20" fill="#fc7734"/></g><g transform="translate(396.31,449.87) scale(0.5355000000000001) rotate(0)"><rect width="2" height="20" fill="#fc732e"/><rect x="4" width="2" height="20" fill="#fc732e"/><rect x="8" width="2" height="20" fill="#fc732e"/><rect x="12" width="2" height="20" fill="#fc732e"/><rect x="16" width="2" height="20" fill="#fc732e"/></g><g transform="translate(610.53,449.87) scale(0.5355000000000001) rotate(0)"><rect width="2" height="20" fill="#fd945f"/><rect x="4" width="2" height="20" fill="#fd945f"/><rect x="8" width="2" height="20" fill="#fd945f"/><rect x="12" width="2" height="20" fill="#fd945f"/><rect x="16" width="2" height="20" fill="#fd945f"/></g><g transform="translate(771.2,449.87) scale(0.5355000000000001) rotate(0)"><rect width="20" height="2" fill="#fdffff"/><rect y="4" width="20" height="2" fill="#fdffff"/><rect y="8" width="20" height="2" fill="#fdffff"/><rect y="12" width="20" height="2" fill="#fdffff"/><rect y="16" width="20" height="2" fill="#fdffff"/></g></g></svg>